%TF.GenerationSoftware,KiCad,Pcbnew,(6.0.7-1)-1*%
%TF.CreationDate,2022-08-03T11:09:00+05:30*%
%TF.ProjectId,Project2_Udemy,50726f6a-6563-4743-925f-5564656d792e,rev?*%
%TF.SameCoordinates,Original*%
%TF.FileFunction,Copper,L1,Top*%
%TF.FilePolarity,Positive*%
%FSLAX46Y46*%
G04 Gerber Fmt 4.6, Leading zero omitted, Abs format (unit mm)*
G04 Created by KiCad (PCBNEW (6.0.7-1)-1) date 2022-08-03 11:09:00*
%MOMM*%
%LPD*%
G01*
G04 APERTURE LIST*
G04 Aperture macros list*
%AMRoundRect*
0 Rectangle with rounded corners*
0 $1 Rounding radius*
0 $2 $3 $4 $5 $6 $7 $8 $9 X,Y pos of 4 corners*
0 Add a 4 corners polygon primitive as box body*
4,1,4,$2,$3,$4,$5,$6,$7,$8,$9,$2,$3,0*
0 Add four circle primitives for the rounded corners*
1,1,$1+$1,$2,$3*
1,1,$1+$1,$4,$5*
1,1,$1+$1,$6,$7*
1,1,$1+$1,$8,$9*
0 Add four rect primitives between the rounded corners*
20,1,$1+$1,$2,$3,$4,$5,0*
20,1,$1+$1,$4,$5,$6,$7,0*
20,1,$1+$1,$6,$7,$8,$9,0*
20,1,$1+$1,$8,$9,$2,$3,0*%
G04 Aperture macros list end*
%TA.AperFunction,ComponentPad*%
%ADD10C,1.600000*%
%TD*%
%TA.AperFunction,ComponentPad*%
%ADD11R,3.000000X3.000000*%
%TD*%
%TA.AperFunction,ComponentPad*%
%ADD12C,3.000000*%
%TD*%
%TA.AperFunction,ComponentPad*%
%ADD13R,1.700000X1.700000*%
%TD*%
%TA.AperFunction,ComponentPad*%
%ADD14O,1.700000X1.700000*%
%TD*%
%TA.AperFunction,ComponentPad*%
%ADD15R,1.900000X1.900000*%
%TD*%
%TA.AperFunction,ComponentPad*%
%ADD16C,1.900000*%
%TD*%
%TA.AperFunction,ComponentPad*%
%ADD17R,1.905000X2.000000*%
%TD*%
%TA.AperFunction,ComponentPad*%
%ADD18O,1.905000X2.000000*%
%TD*%
%TA.AperFunction,ComponentPad*%
%ADD19O,1.600000X1.600000*%
%TD*%
%TA.AperFunction,ComponentPad*%
%ADD20R,1.800000X1.800000*%
%TD*%
%TA.AperFunction,ComponentPad*%
%ADD21C,1.800000*%
%TD*%
%TA.AperFunction,ComponentPad*%
%ADD22R,3.500000X3.500000*%
%TD*%
%TA.AperFunction,ComponentPad*%
%ADD23RoundRect,0.750000X-0.750000X-1.000000X0.750000X-1.000000X0.750000X1.000000X-0.750000X1.000000X0*%
%TD*%
%TA.AperFunction,ComponentPad*%
%ADD24RoundRect,0.875000X-0.875000X-0.875000X0.875000X-0.875000X0.875000X0.875000X-0.875000X0.875000X0*%
%TD*%
%TA.AperFunction,ViaPad*%
%ADD25C,0.900000*%
%TD*%
%TA.AperFunction,Conductor*%
%ADD26C,0.250000*%
%TD*%
G04 APERTURE END LIST*
D10*
%TO.P,C3,1*%
%TO.N,/3.3V*%
X136030000Y-75322000D03*
%TO.P,C3,2*%
%TO.N,GND*%
X133530000Y-75322000D03*
%TD*%
D11*
%TO.P,J7,1,Pin_1*%
%TO.N,GND*%
X147734000Y-116470000D03*
D12*
%TO.P,J7,2,Pin_2*%
%TO.N,/PWR_OUT_TOP*%
X152814000Y-116470000D03*
%TD*%
D13*
%TO.P,J6,1,Pin_1*%
%TO.N,GND*%
X159690000Y-115710000D03*
D14*
%TO.P,J6,2,Pin_2*%
%TO.N,/PWR_OUT_TOP*%
X159690000Y-118250000D03*
%TD*%
D11*
%TO.P,J4,1,Pin_1*%
%TO.N,GND*%
X147734000Y-72442000D03*
D12*
%TO.P,J4,2,Pin_2*%
%TO.N,/PWR_OUT_BOT*%
X152814000Y-72442000D03*
%TD*%
D10*
%TO.P,C2,1*%
%TO.N,/5V*%
X137630000Y-112490000D03*
%TO.P,C2,2*%
%TO.N,GND*%
X135130000Y-112490000D03*
%TD*%
D15*
%TO.P,S1,1*%
%TO.N,/12V*%
X151870000Y-80390000D03*
D16*
%TO.P,S1,2*%
%TO.N,/PWR_INPUT*%
X149370000Y-80390000D03*
%TO.P,S1,3*%
%TO.N,unconnected-(S1-Pad3)*%
X146870000Y-80390000D03*
%TD*%
D17*
%TO.P,U1,1,ADJ*%
%TO.N,Net-(R2-Pad2)*%
X141020000Y-104890000D03*
D18*
%TO.P,U1,2,VO*%
%TO.N,/3.3V*%
X138480000Y-104890000D03*
%TO.P,U1,3,VI*%
%TO.N,/12V*%
X135940000Y-104890000D03*
%TD*%
D10*
%TO.P,R2,1*%
%TO.N,/3.3V*%
X153170000Y-86710000D03*
D19*
%TO.P,R2,2*%
%TO.N,Net-(R2-Pad2)*%
X145550000Y-86710000D03*
%TD*%
D10*
%TO.P,C1,1*%
%TO.N,/12V*%
X141384000Y-75322000D03*
%TO.P,C1,2*%
%TO.N,GND*%
X138884000Y-75322000D03*
%TD*%
%TO.P,R1,1*%
%TO.N,/12V*%
X146890000Y-104444000D03*
D19*
%TO.P,R1,2*%
%TO.N,Net-(D1-Pad2)*%
X154510000Y-104444000D03*
%TD*%
D20*
%TO.P,D1,1,K*%
%TO.N,GND*%
X152274000Y-96663000D03*
D21*
%TO.P,D1,2,A*%
%TO.N,Net-(D1-Pad2)*%
X152274000Y-94123000D03*
%TD*%
D13*
%TO.P,J5,1,Pin_1*%
%TO.N,/3.3V*%
X136558000Y-70242000D03*
D14*
%TO.P,J5,2,Pin_2*%
%TO.N,/PWR_OUT_TOP*%
X139098000Y-70242000D03*
%TO.P,J5,3,Pin_3*%
%TO.N,/5V*%
X141638000Y-70242000D03*
%TD*%
D13*
%TO.P,J3,1,Pin_1*%
%TO.N,GND*%
X159470000Y-70210000D03*
D14*
%TO.P,J3,2,Pin_2*%
%TO.N,/PWR_OUT_BOT*%
X159470000Y-72750000D03*
%TD*%
D13*
%TO.P,J2,1,Pin_1*%
%TO.N,/3.3V*%
X136065000Y-118502000D03*
D14*
%TO.P,J2,2,Pin_2*%
%TO.N,/PWR_OUT_BOT*%
X138605000Y-118502000D03*
%TO.P,J2,3,Pin_3*%
%TO.N,/5V*%
X141145000Y-118502000D03*
%TD*%
D22*
%TO.P,J1,1*%
%TO.N,/PWR_INPUT*%
X145530000Y-95050000D03*
D23*
%TO.P,J1,2*%
%TO.N,GND*%
X139530000Y-95050000D03*
D24*
%TO.P,J1,3*%
X142530000Y-99750000D03*
%TD*%
D17*
%TO.P,U2,1,VI*%
%TO.N,/12V*%
X139352000Y-80981000D03*
D18*
%TO.P,U2,2,GND*%
%TO.N,GND*%
X136812000Y-80981000D03*
%TO.P,U2,3,VO*%
%TO.N,/5V*%
X134272000Y-80981000D03*
%TD*%
D10*
%TO.P,R3,1*%
%TO.N,Net-(R2-Pad2)*%
X154510000Y-109270000D03*
D19*
%TO.P,R3,2*%
%TO.N,GND*%
X146890000Y-109270000D03*
%TD*%
D25*
%TO.N,/12V*%
X133670000Y-89390000D03*
%TO.N,/3.3V*%
X138780000Y-84920000D03*
X138640000Y-114710000D03*
X131900000Y-85360000D03*
%TO.N,/PWR_INPUT*%
X147760000Y-89680000D03*
%TO.N,/PWR_OUT_TOP*%
X144410000Y-107930000D03*
%TO.N,/PWR_OUT_BOT*%
X142200000Y-109050000D03*
%TD*%
D26*
%TO.N,/12V*%
X146490000Y-107060000D02*
X135660000Y-107060000D01*
X139352000Y-80981000D02*
X133670000Y-86663000D01*
X149224000Y-77744000D02*
X141384000Y-77744000D01*
X141384000Y-78949000D02*
X141384000Y-77744000D01*
X141384000Y-77744000D02*
X141384000Y-75322000D01*
X146890000Y-104444000D02*
X146890000Y-106580000D01*
X151870000Y-80390000D02*
X149224000Y-77744000D01*
X133670000Y-86663000D02*
X133670000Y-89390000D01*
X146930000Y-106620000D02*
X146490000Y-107060000D01*
X139352000Y-80981000D02*
X141384000Y-78949000D01*
X135660000Y-107060000D02*
X135660000Y-105170000D01*
X146890000Y-106580000D02*
X146930000Y-106620000D01*
X135660000Y-105170000D02*
X135940000Y-104890000D01*
%TO.N,/5V*%
X134272000Y-79098000D02*
X134272000Y-80981000D01*
X137380000Y-114240000D02*
X137630000Y-113990000D01*
X132780000Y-82473000D02*
X132780000Y-113640000D01*
X141638000Y-70242000D02*
X137500000Y-74380000D01*
X137630000Y-113990000D02*
X137630000Y-112490000D01*
X134272000Y-80981000D02*
X132780000Y-82473000D01*
X132780000Y-113640000D02*
X133380000Y-114240000D01*
X133380000Y-114240000D02*
X137380000Y-114240000D01*
X141145000Y-116005000D02*
X137630000Y-112490000D01*
X137050000Y-79000000D02*
X134370000Y-79000000D01*
X137500000Y-74380000D02*
X137500000Y-78550000D01*
X137500000Y-78550000D02*
X137050000Y-79000000D01*
X134370000Y-79000000D02*
X134272000Y-79098000D01*
X141145000Y-118502000D02*
X141145000Y-116005000D01*
%TO.N,/3.3V*%
X131240000Y-79010000D02*
X131240000Y-85080000D01*
X154440000Y-86870000D02*
X153330000Y-86870000D01*
X131840000Y-85420000D02*
X131900000Y-85360000D01*
X154690000Y-86620000D02*
X154440000Y-86870000D01*
X154690000Y-84840000D02*
X154690000Y-86620000D01*
X138780000Y-84920000D02*
X138860000Y-84840000D01*
X132342000Y-79010000D02*
X131240000Y-79010000D01*
X138480000Y-104890000D02*
X138480000Y-98450000D01*
X136065000Y-117285000D02*
X138640000Y-114710000D01*
X136870000Y-87880000D02*
X139910000Y-84840000D01*
X136030000Y-75322000D02*
X136030000Y-70770000D01*
X136065000Y-118502000D02*
X136065000Y-117285000D01*
X131240000Y-85080000D02*
X131580000Y-85420000D01*
X131580000Y-85420000D02*
X131840000Y-85420000D01*
X136870000Y-96840000D02*
X136870000Y-87880000D01*
X139910000Y-84840000D02*
X154690000Y-84840000D01*
X153330000Y-86870000D02*
X153170000Y-86710000D01*
X136030000Y-70770000D02*
X136558000Y-70242000D01*
X136030000Y-75322000D02*
X132342000Y-79010000D01*
X138860000Y-84840000D02*
X139910000Y-84840000D01*
X138480000Y-98450000D02*
X136870000Y-96840000D01*
%TO.N,Net-(D1-Pad2)*%
X154510000Y-104444000D02*
X154510000Y-96359000D01*
X154510000Y-96359000D02*
X152274000Y-94123000D01*
%TO.N,/PWR_INPUT*%
X152650000Y-83670000D02*
X152650000Y-83730000D01*
X153140000Y-84220000D02*
X155270000Y-84220000D01*
X155270000Y-84220000D02*
X155270000Y-88390000D01*
X152650000Y-83730000D02*
X153140000Y-84220000D01*
X147890000Y-89810000D02*
X147760000Y-89680000D01*
X153850000Y-89810000D02*
X147890000Y-89810000D01*
X155270000Y-88390000D02*
X153850000Y-89810000D01*
X149370000Y-80390000D02*
X152650000Y-83670000D01*
%TO.N,/PWR_OUT_TOP*%
X145010000Y-111760000D02*
X145090000Y-111680000D01*
X145090000Y-111680000D02*
X151730000Y-111680000D01*
X151730000Y-111680000D02*
X152814000Y-112764000D01*
X144410000Y-107930000D02*
X144430000Y-107950000D01*
X152814000Y-112764000D02*
X152814000Y-116470000D01*
X144430000Y-111180000D02*
X145010000Y-111760000D01*
X144430000Y-107950000D02*
X144430000Y-111180000D01*
X159690000Y-118250000D02*
X154594000Y-118250000D01*
X154594000Y-118250000D02*
X152814000Y-116470000D01*
%TO.N,/PWR_OUT_BOT*%
X159470000Y-72750000D02*
X153122000Y-72750000D01*
X144160000Y-112790000D02*
X144160000Y-120590000D01*
X153496000Y-71760000D02*
X152814000Y-72442000D01*
X140693000Y-120590000D02*
X138605000Y-118502000D01*
X144160000Y-120590000D02*
X140693000Y-120590000D01*
X142200000Y-109050000D02*
X142200000Y-110830000D01*
X142200000Y-110830000D02*
X144160000Y-112790000D01*
X152760000Y-72388000D02*
X152814000Y-72442000D01*
%TO.N,Net-(R2-Pad2)*%
X144560000Y-104890000D02*
X141020000Y-104890000D01*
X145550000Y-88710000D02*
X148090000Y-91250000D01*
X148090000Y-91250000D02*
X148090000Y-101100000D01*
X148090000Y-101360000D02*
X144560000Y-104890000D01*
X148090000Y-101100000D02*
X148090000Y-101360000D01*
X154510000Y-109270000D02*
X154510000Y-107520000D01*
X145550000Y-86710000D02*
X145550000Y-88710000D01*
X154510000Y-107520000D02*
X148090000Y-101100000D01*
%TD*%
M02*
