%TF.GenerationSoftware,KiCad,Pcbnew,(6.0.7-1)-1*%
%TF.CreationDate,2022-08-03T11:09:00+05:30*%
%TF.ProjectId,Project2_Udemy,50726f6a-6563-4743-925f-5564656d792e,rev?*%
%TF.SameCoordinates,Original*%
%TF.FileFunction,Legend,Bot*%
%TF.FilePolarity,Positive*%
%FSLAX46Y46*%
G04 Gerber Fmt 4.6, Leading zero omitted, Abs format (unit mm)*
G04 Created by KiCad (PCBNEW (6.0.7-1)-1) date 2022-08-03 11:09:00*
%MOMM*%
%LPD*%
G01*
G04 APERTURE LIST*
%ADD10C,0.010000*%
G04 APERTURE END LIST*
%TO.C,REF\u002A\u002A*%
G36*
X145406911Y-111186829D02*
G01*
X145485228Y-111187061D01*
X145545496Y-111187681D01*
X145590393Y-111188874D01*
X145622602Y-111190821D01*
X145644800Y-111193706D01*
X145659669Y-111197712D01*
X145669889Y-111203021D01*
X145678138Y-111209817D01*
X145682795Y-111214332D01*
X145689282Y-111222562D01*
X145694194Y-111233922D01*
X145697749Y-111251190D01*
X145700167Y-111277145D01*
X145701667Y-111314564D01*
X145702467Y-111366227D01*
X145702787Y-111434911D01*
X145702845Y-111523394D01*
X145702838Y-111543069D01*
X145702572Y-111630094D01*
X145701806Y-111697746D01*
X145700392Y-111748701D01*
X145698180Y-111785633D01*
X145695022Y-111811217D01*
X145690769Y-111828129D01*
X145685271Y-111839043D01*
X145675285Y-111849536D01*
X145644168Y-111862797D01*
X145608280Y-111861614D01*
X145576733Y-111845450D01*
X145574457Y-111843261D01*
X145568189Y-111834573D01*
X145563523Y-111821231D01*
X145560227Y-111800248D01*
X145558068Y-111768637D01*
X145556814Y-111723410D01*
X145556231Y-111661580D01*
X145556089Y-111580161D01*
X145556089Y-111333555D01*
X145398045Y-111333555D01*
X145398045Y-111495994D01*
X145397964Y-111531662D01*
X145397167Y-111587432D01*
X145395162Y-111626570D01*
X145391521Y-111653024D01*
X145385812Y-111670741D01*
X145377607Y-111683671D01*
X145374423Y-111687314D01*
X145343448Y-111705722D01*
X145307112Y-111706356D01*
X145273493Y-111688817D01*
X145273424Y-111688755D01*
X145264798Y-111679084D01*
X145258742Y-111665791D01*
X145254811Y-111645083D01*
X145252556Y-111613172D01*
X145251531Y-111566266D01*
X145251289Y-111500576D01*
X145251289Y-111332429D01*
X145186378Y-111335814D01*
X145121467Y-111339200D01*
X145118414Y-111581277D01*
X145118086Y-111606293D01*
X145116606Y-111687913D01*
X145114222Y-111750232D01*
X145110227Y-111795846D01*
X145103913Y-111827348D01*
X145094574Y-111847333D01*
X145081503Y-111858396D01*
X145063992Y-111863131D01*
X145041335Y-111864133D01*
X145038970Y-111864127D01*
X145018939Y-111862973D01*
X145003146Y-111858176D01*
X144991090Y-111847368D01*
X144982267Y-111828183D01*
X144976175Y-111798255D01*
X144972311Y-111755217D01*
X144970174Y-111696701D01*
X144969260Y-111620343D01*
X144969067Y-111523774D01*
X144969067Y-111233594D01*
X144998811Y-111210197D01*
X145005495Y-111205248D01*
X145016066Y-111199404D01*
X145030153Y-111194943D01*
X145050478Y-111191679D01*
X145079765Y-111189426D01*
X145120737Y-111187998D01*
X145176117Y-111187208D01*
X145248628Y-111186871D01*
X145340994Y-111186800D01*
X145406911Y-111186829D01*
G37*
D10*
X145406911Y-111186829D02*
X145485228Y-111187061D01*
X145545496Y-111187681D01*
X145590393Y-111188874D01*
X145622602Y-111190821D01*
X145644800Y-111193706D01*
X145659669Y-111197712D01*
X145669889Y-111203021D01*
X145678138Y-111209817D01*
X145682795Y-111214332D01*
X145689282Y-111222562D01*
X145694194Y-111233922D01*
X145697749Y-111251190D01*
X145700167Y-111277145D01*
X145701667Y-111314564D01*
X145702467Y-111366227D01*
X145702787Y-111434911D01*
X145702845Y-111523394D01*
X145702838Y-111543069D01*
X145702572Y-111630094D01*
X145701806Y-111697746D01*
X145700392Y-111748701D01*
X145698180Y-111785633D01*
X145695022Y-111811217D01*
X145690769Y-111828129D01*
X145685271Y-111839043D01*
X145675285Y-111849536D01*
X145644168Y-111862797D01*
X145608280Y-111861614D01*
X145576733Y-111845450D01*
X145574457Y-111843261D01*
X145568189Y-111834573D01*
X145563523Y-111821231D01*
X145560227Y-111800248D01*
X145558068Y-111768637D01*
X145556814Y-111723410D01*
X145556231Y-111661580D01*
X145556089Y-111580161D01*
X145556089Y-111333555D01*
X145398045Y-111333555D01*
X145398045Y-111495994D01*
X145397964Y-111531662D01*
X145397167Y-111587432D01*
X145395162Y-111626570D01*
X145391521Y-111653024D01*
X145385812Y-111670741D01*
X145377607Y-111683671D01*
X145374423Y-111687314D01*
X145343448Y-111705722D01*
X145307112Y-111706356D01*
X145273493Y-111688817D01*
X145273424Y-111688755D01*
X145264798Y-111679084D01*
X145258742Y-111665791D01*
X145254811Y-111645083D01*
X145252556Y-111613172D01*
X145251531Y-111566266D01*
X145251289Y-111500576D01*
X145251289Y-111332429D01*
X145186378Y-111335814D01*
X145121467Y-111339200D01*
X145118414Y-111581277D01*
X145118086Y-111606293D01*
X145116606Y-111687913D01*
X145114222Y-111750232D01*
X145110227Y-111795846D01*
X145103913Y-111827348D01*
X145094574Y-111847333D01*
X145081503Y-111858396D01*
X145063992Y-111863131D01*
X145041335Y-111864133D01*
X145038970Y-111864127D01*
X145018939Y-111862973D01*
X145003146Y-111858176D01*
X144991090Y-111847368D01*
X144982267Y-111828183D01*
X144976175Y-111798255D01*
X144972311Y-111755217D01*
X144970174Y-111696701D01*
X144969260Y-111620343D01*
X144969067Y-111523774D01*
X144969067Y-111233594D01*
X144998811Y-111210197D01*
X145005495Y-111205248D01*
X145016066Y-111199404D01*
X145030153Y-111194943D01*
X145050478Y-111191679D01*
X145079765Y-111189426D01*
X145120737Y-111187998D01*
X145176117Y-111187208D01*
X145248628Y-111186871D01*
X145340994Y-111186800D01*
X145406911Y-111186829D01*
G36*
X142521325Y-110072449D02*
G01*
X142722581Y-110089209D01*
X142917128Y-110122708D01*
X143100756Y-110172956D01*
X143218053Y-110216810D01*
X143380951Y-110294652D01*
X143534866Y-110388172D01*
X143676671Y-110495178D01*
X143803239Y-110613481D01*
X143911441Y-110740889D01*
X143964120Y-110818394D01*
X144033750Y-110945275D01*
X144092468Y-111082757D01*
X144137587Y-111224284D01*
X144166422Y-111363298D01*
X144168106Y-111377403D01*
X144171434Y-111420847D01*
X144174275Y-111478277D01*
X144176373Y-111543878D01*
X144177468Y-111611833D01*
X144175140Y-111738622D01*
X144162136Y-111886327D01*
X144137133Y-112024221D01*
X144099318Y-112157986D01*
X144090889Y-112181438D01*
X144071408Y-112229388D01*
X144046473Y-112285860D01*
X144017722Y-112347621D01*
X143986790Y-112411437D01*
X143955315Y-112474074D01*
X143924934Y-112532297D01*
X143897283Y-112582873D01*
X143873999Y-112622567D01*
X143856718Y-112648146D01*
X143847079Y-112656375D01*
X143843984Y-112654924D01*
X143824079Y-112643750D01*
X143788420Y-112622866D01*
X143739459Y-112593735D01*
X143679646Y-112557819D01*
X143611433Y-112516580D01*
X143537271Y-112471483D01*
X143240008Y-112290215D01*
X143284539Y-112243685D01*
X143362865Y-112152277D01*
X143437439Y-112038666D01*
X143491474Y-111920878D01*
X143524290Y-111800441D01*
X143535211Y-111678883D01*
X143533868Y-111637415D01*
X143515612Y-111519920D01*
X143476617Y-111409911D01*
X143417670Y-111308570D01*
X143339557Y-111217079D01*
X143243064Y-111136620D01*
X143128978Y-111068373D01*
X143094724Y-111052092D01*
X142971240Y-111006018D01*
X142832918Y-110970894D01*
X142683561Y-110946803D01*
X142526973Y-110933827D01*
X142366956Y-110932051D01*
X142207314Y-110941557D01*
X142051850Y-110962428D01*
X141904366Y-110994748D01*
X141768667Y-111038601D01*
X141682076Y-111076018D01*
X141568688Y-111140815D01*
X141475070Y-111216228D01*
X141400959Y-111302582D01*
X141346094Y-111400205D01*
X141310212Y-111509423D01*
X141293051Y-111630561D01*
X141291880Y-111699962D01*
X141306141Y-111822832D01*
X141341241Y-111938336D01*
X141396682Y-112045047D01*
X141471964Y-112141536D01*
X141486440Y-112157280D01*
X141512962Y-112187850D01*
X141530138Y-112210191D01*
X141534787Y-112220309D01*
X141532597Y-112222294D01*
X141513721Y-112236759D01*
X141480397Y-112260600D01*
X141435380Y-112291971D01*
X141381425Y-112329026D01*
X141321285Y-112369917D01*
X141257718Y-112412798D01*
X141193476Y-112455822D01*
X141131315Y-112497143D01*
X141073991Y-112534914D01*
X141024257Y-112567288D01*
X140984868Y-112592418D01*
X140958580Y-112608458D01*
X140948147Y-112613561D01*
X140943941Y-112608950D01*
X140938933Y-112589733D01*
X140936386Y-112580162D01*
X140925249Y-112552191D01*
X140906802Y-112510552D01*
X140882725Y-112459005D01*
X140854699Y-112401310D01*
X140849154Y-112390043D01*
X140769889Y-112212313D01*
X140710385Y-112042510D01*
X140670245Y-111878570D01*
X140649071Y-111718429D01*
X140646466Y-111560023D01*
X140662033Y-111401289D01*
X140679523Y-111305732D01*
X140724564Y-111141442D01*
X140787656Y-110987411D01*
X140869915Y-110841491D01*
X140972457Y-110701534D01*
X141096399Y-110565392D01*
X141141661Y-110521527D01*
X141273865Y-110409242D01*
X141411832Y-110316028D01*
X141559750Y-110239281D01*
X141721803Y-110176397D01*
X141733391Y-110172580D01*
X141919392Y-110122493D01*
X142115521Y-110089101D01*
X142317568Y-110072416D01*
X142521325Y-110072449D01*
G37*
X142521325Y-110072449D02*
X142722581Y-110089209D01*
X142917128Y-110122708D01*
X143100756Y-110172956D01*
X143218053Y-110216810D01*
X143380951Y-110294652D01*
X143534866Y-110388172D01*
X143676671Y-110495178D01*
X143803239Y-110613481D01*
X143911441Y-110740889D01*
X143964120Y-110818394D01*
X144033750Y-110945275D01*
X144092468Y-111082757D01*
X144137587Y-111224284D01*
X144166422Y-111363298D01*
X144168106Y-111377403D01*
X144171434Y-111420847D01*
X144174275Y-111478277D01*
X144176373Y-111543878D01*
X144177468Y-111611833D01*
X144175140Y-111738622D01*
X144162136Y-111886327D01*
X144137133Y-112024221D01*
X144099318Y-112157986D01*
X144090889Y-112181438D01*
X144071408Y-112229388D01*
X144046473Y-112285860D01*
X144017722Y-112347621D01*
X143986790Y-112411437D01*
X143955315Y-112474074D01*
X143924934Y-112532297D01*
X143897283Y-112582873D01*
X143873999Y-112622567D01*
X143856718Y-112648146D01*
X143847079Y-112656375D01*
X143843984Y-112654924D01*
X143824079Y-112643750D01*
X143788420Y-112622866D01*
X143739459Y-112593735D01*
X143679646Y-112557819D01*
X143611433Y-112516580D01*
X143537271Y-112471483D01*
X143240008Y-112290215D01*
X143284539Y-112243685D01*
X143362865Y-112152277D01*
X143437439Y-112038666D01*
X143491474Y-111920878D01*
X143524290Y-111800441D01*
X143535211Y-111678883D01*
X143533868Y-111637415D01*
X143515612Y-111519920D01*
X143476617Y-111409911D01*
X143417670Y-111308570D01*
X143339557Y-111217079D01*
X143243064Y-111136620D01*
X143128978Y-111068373D01*
X143094724Y-111052092D01*
X142971240Y-111006018D01*
X142832918Y-110970894D01*
X142683561Y-110946803D01*
X142526973Y-110933827D01*
X142366956Y-110932051D01*
X142207314Y-110941557D01*
X142051850Y-110962428D01*
X141904366Y-110994748D01*
X141768667Y-111038601D01*
X141682076Y-111076018D01*
X141568688Y-111140815D01*
X141475070Y-111216228D01*
X141400959Y-111302582D01*
X141346094Y-111400205D01*
X141310212Y-111509423D01*
X141293051Y-111630561D01*
X141291880Y-111699962D01*
X141306141Y-111822832D01*
X141341241Y-111938336D01*
X141396682Y-112045047D01*
X141471964Y-112141536D01*
X141486440Y-112157280D01*
X141512962Y-112187850D01*
X141530138Y-112210191D01*
X141534787Y-112220309D01*
X141532597Y-112222294D01*
X141513721Y-112236759D01*
X141480397Y-112260600D01*
X141435380Y-112291971D01*
X141381425Y-112329026D01*
X141321285Y-112369917D01*
X141257718Y-112412798D01*
X141193476Y-112455822D01*
X141131315Y-112497143D01*
X141073991Y-112534914D01*
X141024257Y-112567288D01*
X140984868Y-112592418D01*
X140958580Y-112608458D01*
X140948147Y-112613561D01*
X140943941Y-112608950D01*
X140938933Y-112589733D01*
X140936386Y-112580162D01*
X140925249Y-112552191D01*
X140906802Y-112510552D01*
X140882725Y-112459005D01*
X140854699Y-112401310D01*
X140849154Y-112390043D01*
X140769889Y-112212313D01*
X140710385Y-112042510D01*
X140670245Y-111878570D01*
X140649071Y-111718429D01*
X140646466Y-111560023D01*
X140662033Y-111401289D01*
X140679523Y-111305732D01*
X140724564Y-111141442D01*
X140787656Y-110987411D01*
X140869915Y-110841491D01*
X140972457Y-110701534D01*
X141096399Y-110565392D01*
X141141661Y-110521527D01*
X141273865Y-110409242D01*
X141411832Y-110316028D01*
X141559750Y-110239281D01*
X141721803Y-110176397D01*
X141733391Y-110172580D01*
X141919392Y-110122493D01*
X142115521Y-110089101D01*
X142317568Y-110072416D01*
X142521325Y-110072449D01*
G36*
X145410713Y-106242303D02*
G01*
X145488889Y-106242552D01*
X145549103Y-106243188D01*
X145593982Y-106244385D01*
X145626152Y-106246316D01*
X145648239Y-106249154D01*
X145662870Y-106253073D01*
X145672670Y-106258245D01*
X145680267Y-106264844D01*
X145683444Y-106268178D01*
X145689554Y-106276700D01*
X145694229Y-106288702D01*
X145697659Y-106306913D01*
X145700036Y-106334060D01*
X145701552Y-106372871D01*
X145702398Y-106426076D01*
X145702765Y-106496402D01*
X145702845Y-106586578D01*
X145702833Y-106628686D01*
X145702651Y-106709833D01*
X145702098Y-106772325D01*
X145700982Y-106818891D01*
X145699113Y-106852259D01*
X145696298Y-106875156D01*
X145692346Y-106890312D01*
X145687066Y-106900454D01*
X145680267Y-106908311D01*
X145658667Y-106923037D01*
X145629467Y-106930889D01*
X145605560Y-106925390D01*
X145578667Y-106908311D01*
X145574059Y-106903332D01*
X145567772Y-106893557D01*
X145563146Y-106879441D01*
X145559930Y-106857946D01*
X145557870Y-106826032D01*
X145556712Y-106780658D01*
X145556202Y-106718787D01*
X145556089Y-106637378D01*
X145556089Y-106389022D01*
X145398045Y-106389022D01*
X145398045Y-106550199D01*
X145397899Y-106586017D01*
X145396176Y-106651641D01*
X145391741Y-106698882D01*
X145383637Y-106730617D01*
X145370906Y-106749723D01*
X145352592Y-106759077D01*
X145327738Y-106761555D01*
X145307482Y-106760758D01*
X145285656Y-106755506D01*
X145270304Y-106742712D01*
X145260309Y-106719372D01*
X145254553Y-106682483D01*
X145251919Y-106629041D01*
X145251289Y-106556042D01*
X145251289Y-106387895D01*
X145186378Y-106391281D01*
X145121467Y-106394666D01*
X145118418Y-106642383D01*
X145117539Y-106704974D01*
X145116095Y-106773435D01*
X145114164Y-106824339D01*
X145111514Y-106860592D01*
X145107910Y-106885099D01*
X145103121Y-106900765D01*
X145096913Y-106910494D01*
X145090510Y-106916509D01*
X145058828Y-106929518D01*
X145023142Y-106925957D01*
X144992084Y-106906182D01*
X144989161Y-106902931D01*
X144982810Y-106893951D01*
X144977957Y-106881847D01*
X144974403Y-106863841D01*
X144971946Y-106837153D01*
X144970385Y-106799003D01*
X144969518Y-106746614D01*
X144969146Y-106677206D01*
X144969067Y-106587999D01*
X144969083Y-106533266D01*
X144969275Y-106456169D01*
X144969860Y-106397223D01*
X144971051Y-106353636D01*
X144973064Y-106322617D01*
X144976112Y-106301375D01*
X144980409Y-106287118D01*
X144986172Y-106277055D01*
X144993612Y-106268394D01*
X144995293Y-106266609D01*
X145002832Y-106259365D01*
X145011850Y-106253723D01*
X145024984Y-106249483D01*
X145044872Y-106246444D01*
X145074151Y-106244406D01*
X145115458Y-106243170D01*
X145171431Y-106242535D01*
X145244707Y-106242300D01*
X145337923Y-106242266D01*
X145410713Y-106242303D01*
G37*
X145410713Y-106242303D02*
X145488889Y-106242552D01*
X145549103Y-106243188D01*
X145593982Y-106244385D01*
X145626152Y-106246316D01*
X145648239Y-106249154D01*
X145662870Y-106253073D01*
X145672670Y-106258245D01*
X145680267Y-106264844D01*
X145683444Y-106268178D01*
X145689554Y-106276700D01*
X145694229Y-106288702D01*
X145697659Y-106306913D01*
X145700036Y-106334060D01*
X145701552Y-106372871D01*
X145702398Y-106426076D01*
X145702765Y-106496402D01*
X145702845Y-106586578D01*
X145702833Y-106628686D01*
X145702651Y-106709833D01*
X145702098Y-106772325D01*
X145700982Y-106818891D01*
X145699113Y-106852259D01*
X145696298Y-106875156D01*
X145692346Y-106890312D01*
X145687066Y-106900454D01*
X145680267Y-106908311D01*
X145658667Y-106923037D01*
X145629467Y-106930889D01*
X145605560Y-106925390D01*
X145578667Y-106908311D01*
X145574059Y-106903332D01*
X145567772Y-106893557D01*
X145563146Y-106879441D01*
X145559930Y-106857946D01*
X145557870Y-106826032D01*
X145556712Y-106780658D01*
X145556202Y-106718787D01*
X145556089Y-106637378D01*
X145556089Y-106389022D01*
X145398045Y-106389022D01*
X145398045Y-106550199D01*
X145397899Y-106586017D01*
X145396176Y-106651641D01*
X145391741Y-106698882D01*
X145383637Y-106730617D01*
X145370906Y-106749723D01*
X145352592Y-106759077D01*
X145327738Y-106761555D01*
X145307482Y-106760758D01*
X145285656Y-106755506D01*
X145270304Y-106742712D01*
X145260309Y-106719372D01*
X145254553Y-106682483D01*
X145251919Y-106629041D01*
X145251289Y-106556042D01*
X145251289Y-106387895D01*
X145186378Y-106391281D01*
X145121467Y-106394666D01*
X145118418Y-106642383D01*
X145117539Y-106704974D01*
X145116095Y-106773435D01*
X145114164Y-106824339D01*
X145111514Y-106860592D01*
X145107910Y-106885099D01*
X145103121Y-106900765D01*
X145096913Y-106910494D01*
X145090510Y-106916509D01*
X145058828Y-106929518D01*
X145023142Y-106925957D01*
X144992084Y-106906182D01*
X144989161Y-106902931D01*
X144982810Y-106893951D01*
X144977957Y-106881847D01*
X144974403Y-106863841D01*
X144971946Y-106837153D01*
X144970385Y-106799003D01*
X144969518Y-106746614D01*
X144969146Y-106677206D01*
X144969067Y-106587999D01*
X144969083Y-106533266D01*
X144969275Y-106456169D01*
X144969860Y-106397223D01*
X144971051Y-106353636D01*
X144973064Y-106322617D01*
X144976112Y-106301375D01*
X144980409Y-106287118D01*
X144986172Y-106277055D01*
X144993612Y-106268394D01*
X144995293Y-106266609D01*
X145002832Y-106259365D01*
X145011850Y-106253723D01*
X145024984Y-106249483D01*
X145044872Y-106246444D01*
X145074151Y-106244406D01*
X145115458Y-106243170D01*
X145171431Y-106242535D01*
X145244707Y-106242300D01*
X145337923Y-106242266D01*
X145410713Y-106242303D01*
G36*
X145681264Y-115508873D02*
G01*
X145698739Y-115540233D01*
X145699575Y-115576034D01*
X145679082Y-115607472D01*
X145674416Y-115611348D01*
X145664949Y-115616814D01*
X145651267Y-115621021D01*
X145630748Y-115624133D01*
X145600768Y-115626313D01*
X145558704Y-115627724D01*
X145501932Y-115628529D01*
X145427830Y-115628893D01*
X145333773Y-115628978D01*
X145012227Y-115628978D01*
X144990647Y-115602327D01*
X144975877Y-115578614D01*
X144969067Y-115555600D01*
X144974949Y-115534594D01*
X144990647Y-115508873D01*
X145012227Y-115482222D01*
X145659684Y-115482222D01*
X145681264Y-115508873D01*
G37*
X145681264Y-115508873D02*
X145698739Y-115540233D01*
X145699575Y-115576034D01*
X145679082Y-115607472D01*
X145674416Y-115611348D01*
X145664949Y-115616814D01*
X145651267Y-115621021D01*
X145630748Y-115624133D01*
X145600768Y-115626313D01*
X145558704Y-115627724D01*
X145501932Y-115628529D01*
X145427830Y-115628893D01*
X145333773Y-115628978D01*
X145012227Y-115628978D01*
X144990647Y-115602327D01*
X144975877Y-115578614D01*
X144969067Y-115555600D01*
X144974949Y-115534594D01*
X144990647Y-115508873D01*
X145012227Y-115482222D01*
X145659684Y-115482222D01*
X145681264Y-115508873D01*
G36*
X145220232Y-107214048D02*
G01*
X145245029Y-107219840D01*
X145266699Y-107234647D01*
X145294049Y-107262620D01*
X145301378Y-107270598D01*
X145322281Y-107294308D01*
X145339251Y-107316702D01*
X145353205Y-107340735D01*
X145365056Y-107369363D01*
X145375720Y-107405540D01*
X145386111Y-107452220D01*
X145397146Y-107512359D01*
X145409738Y-107588910D01*
X145424804Y-107684829D01*
X145427838Y-107703192D01*
X145441458Y-107765522D01*
X145457192Y-107810740D01*
X145474263Y-107837024D01*
X145491897Y-107842553D01*
X145496168Y-107839932D01*
X145511233Y-107822000D01*
X145527867Y-107793874D01*
X145533857Y-107781074D01*
X145541050Y-107759776D01*
X145545827Y-107733390D01*
X145548646Y-107697546D01*
X145549964Y-107647872D01*
X145550237Y-107580000D01*
X145550164Y-107562215D01*
X145549053Y-107494594D01*
X145546828Y-107429655D01*
X145543762Y-107374030D01*
X145540127Y-107334349D01*
X145536059Y-107298838D01*
X145535276Y-107269585D01*
X145539876Y-107250685D01*
X145550551Y-107235571D01*
X145554144Y-107231915D01*
X145585918Y-107215573D01*
X145621572Y-107216893D01*
X145652190Y-107235850D01*
X145663796Y-107256220D01*
X145676491Y-107292204D01*
X145686541Y-107334628D01*
X145687140Y-107338078D01*
X145692356Y-107380748D01*
X145696730Y-107438134D01*
X145699818Y-107503151D01*
X145701177Y-107568711D01*
X145701218Y-107584943D01*
X145698741Y-107683256D01*
X145690735Y-107763308D01*
X145676203Y-107828487D01*
X145654149Y-107882183D01*
X145623576Y-107927784D01*
X145583486Y-107968677D01*
X145557259Y-107988798D01*
X145527712Y-108000424D01*
X145487995Y-108003333D01*
X145476026Y-108003192D01*
X145443345Y-107999319D01*
X145416819Y-107986935D01*
X145385971Y-107961770D01*
X145363831Y-107940558D01*
X145341285Y-107914162D01*
X145322917Y-107884445D01*
X145307661Y-107848215D01*
X145294449Y-107802283D01*
X145282214Y-107743456D01*
X145269889Y-107668544D01*
X145256406Y-107574355D01*
X145249396Y-107529043D01*
X145234837Y-107461089D01*
X145218337Y-107411953D01*
X145200439Y-107382386D01*
X145181685Y-107373136D01*
X145162615Y-107384952D01*
X145143771Y-107418584D01*
X145142557Y-107421630D01*
X145130479Y-107467989D01*
X145122279Y-107530639D01*
X145118119Y-107604073D01*
X145118161Y-107682783D01*
X145122569Y-107761261D01*
X145131505Y-107834000D01*
X145132154Y-107837927D01*
X145139861Y-107886743D01*
X145143473Y-107918995D01*
X145142876Y-107939992D01*
X145137954Y-107955046D01*
X145128596Y-107969466D01*
X145127725Y-107970636D01*
X145097351Y-107995153D01*
X145061850Y-107999946D01*
X145027269Y-107984140D01*
X145022813Y-107979594D01*
X145007673Y-107949980D01*
X144994550Y-107902998D01*
X144983750Y-107842694D01*
X144975581Y-107773112D01*
X144970351Y-107698297D01*
X144968367Y-107622294D01*
X144969936Y-107549147D01*
X144975366Y-107482900D01*
X144984964Y-107427600D01*
X144999825Y-107376717D01*
X145032958Y-107305405D01*
X145075640Y-107254248D01*
X145127705Y-107223425D01*
X145188983Y-107213111D01*
X145220232Y-107214048D01*
G37*
X145220232Y-107214048D02*
X145245029Y-107219840D01*
X145266699Y-107234647D01*
X145294049Y-107262620D01*
X145301378Y-107270598D01*
X145322281Y-107294308D01*
X145339251Y-107316702D01*
X145353205Y-107340735D01*
X145365056Y-107369363D01*
X145375720Y-107405540D01*
X145386111Y-107452220D01*
X145397146Y-107512359D01*
X145409738Y-107588910D01*
X145424804Y-107684829D01*
X145427838Y-107703192D01*
X145441458Y-107765522D01*
X145457192Y-107810740D01*
X145474263Y-107837024D01*
X145491897Y-107842553D01*
X145496168Y-107839932D01*
X145511233Y-107822000D01*
X145527867Y-107793874D01*
X145533857Y-107781074D01*
X145541050Y-107759776D01*
X145545827Y-107733390D01*
X145548646Y-107697546D01*
X145549964Y-107647872D01*
X145550237Y-107580000D01*
X145550164Y-107562215D01*
X145549053Y-107494594D01*
X145546828Y-107429655D01*
X145543762Y-107374030D01*
X145540127Y-107334349D01*
X145536059Y-107298838D01*
X145535276Y-107269585D01*
X145539876Y-107250685D01*
X145550551Y-107235571D01*
X145554144Y-107231915D01*
X145585918Y-107215573D01*
X145621572Y-107216893D01*
X145652190Y-107235850D01*
X145663796Y-107256220D01*
X145676491Y-107292204D01*
X145686541Y-107334628D01*
X145687140Y-107338078D01*
X145692356Y-107380748D01*
X145696730Y-107438134D01*
X145699818Y-107503151D01*
X145701177Y-107568711D01*
X145701218Y-107584943D01*
X145698741Y-107683256D01*
X145690735Y-107763308D01*
X145676203Y-107828487D01*
X145654149Y-107882183D01*
X145623576Y-107927784D01*
X145583486Y-107968677D01*
X145557259Y-107988798D01*
X145527712Y-108000424D01*
X145487995Y-108003333D01*
X145476026Y-108003192D01*
X145443345Y-107999319D01*
X145416819Y-107986935D01*
X145385971Y-107961770D01*
X145363831Y-107940558D01*
X145341285Y-107914162D01*
X145322917Y-107884445D01*
X145307661Y-107848215D01*
X145294449Y-107802283D01*
X145282214Y-107743456D01*
X145269889Y-107668544D01*
X145256406Y-107574355D01*
X145249396Y-107529043D01*
X145234837Y-107461089D01*
X145218337Y-107411953D01*
X145200439Y-107382386D01*
X145181685Y-107373136D01*
X145162615Y-107384952D01*
X145143771Y-107418584D01*
X145142557Y-107421630D01*
X145130479Y-107467989D01*
X145122279Y-107530639D01*
X145118119Y-107604073D01*
X145118161Y-107682783D01*
X145122569Y-107761261D01*
X145131505Y-107834000D01*
X145132154Y-107837927D01*
X145139861Y-107886743D01*
X145143473Y-107918995D01*
X145142876Y-107939992D01*
X145137954Y-107955046D01*
X145128596Y-107969466D01*
X145127725Y-107970636D01*
X145097351Y-107995153D01*
X145061850Y-107999946D01*
X145027269Y-107984140D01*
X145022813Y-107979594D01*
X145007673Y-107949980D01*
X144994550Y-107902998D01*
X144983750Y-107842694D01*
X144975581Y-107773112D01*
X144970351Y-107698297D01*
X144968367Y-107622294D01*
X144969936Y-107549147D01*
X144975366Y-107482900D01*
X144984964Y-107427600D01*
X144999825Y-107376717D01*
X145032958Y-107305405D01*
X145075640Y-107254248D01*
X145127705Y-107223425D01*
X145188983Y-107213111D01*
X145220232Y-107214048D01*
G36*
X143020158Y-115204732D02*
G01*
X143171594Y-115213311D01*
X143308283Y-115232167D01*
X143434276Y-115262163D01*
X143553625Y-115304164D01*
X143670381Y-115359031D01*
X143781179Y-115425833D01*
X143894739Y-115516637D01*
X143990211Y-115620292D01*
X144067073Y-115736113D01*
X144124797Y-115863414D01*
X144162858Y-116001511D01*
X144168666Y-116039207D01*
X144174396Y-116118248D01*
X144174583Y-116206371D01*
X144169539Y-116295764D01*
X144159578Y-116378616D01*
X144145012Y-116447113D01*
X144135364Y-116477965D01*
X144105123Y-116555270D01*
X144067617Y-116632321D01*
X144026614Y-116701800D01*
X143985879Y-116756385D01*
X143966505Y-116779084D01*
X143948662Y-116801799D01*
X143941778Y-116813221D01*
X143943424Y-116814463D01*
X143961205Y-116817272D01*
X143994370Y-116819224D01*
X144037733Y-116819955D01*
X144133689Y-116819955D01*
X144133689Y-117678104D01*
X144072974Y-117643839D01*
X144063868Y-117638645D01*
X144049249Y-117630285D01*
X144035173Y-117622712D01*
X144020540Y-117615888D01*
X144004249Y-117609773D01*
X143985198Y-117604327D01*
X143962286Y-117599513D01*
X143934413Y-117595292D01*
X143900478Y-117591623D01*
X143859379Y-117588469D01*
X143810015Y-117585789D01*
X143751286Y-117583546D01*
X143682090Y-117581701D01*
X143601326Y-117580213D01*
X143507894Y-117579045D01*
X143400692Y-117578156D01*
X143278620Y-117577509D01*
X143140576Y-117577064D01*
X142985459Y-117576782D01*
X142812168Y-117576625D01*
X142619603Y-117576552D01*
X142406662Y-117576526D01*
X142172245Y-117576507D01*
X140487378Y-117576311D01*
X140487378Y-116670983D01*
X140524067Y-116695415D01*
X140533647Y-116701682D01*
X140579981Y-116727792D01*
X140627102Y-116745531D01*
X140682251Y-116757092D01*
X140752667Y-116764669D01*
X140759650Y-116765161D01*
X140797641Y-116766938D01*
X140851576Y-116768556D01*
X140918703Y-116770001D01*
X140996271Y-116771260D01*
X141081528Y-116772320D01*
X141171724Y-116773171D01*
X141264107Y-116773797D01*
X141355925Y-116774188D01*
X141444427Y-116774330D01*
X141526862Y-116774210D01*
X141600479Y-116773817D01*
X141662526Y-116773138D01*
X141710251Y-116772159D01*
X141740904Y-116770868D01*
X141751733Y-116769253D01*
X141747333Y-116761043D01*
X141732362Y-116739353D01*
X141710448Y-116709986D01*
X141676236Y-116661121D01*
X141629714Y-116572875D01*
X141596046Y-116474084D01*
X141593231Y-116459557D01*
X142147465Y-116459557D01*
X142159389Y-116544681D01*
X142186040Y-116628867D01*
X142226962Y-116707392D01*
X142270530Y-116774800D01*
X143420721Y-116774800D01*
X143467089Y-116704244D01*
X143490791Y-116663583D01*
X143516639Y-116609454D01*
X143534829Y-116560311D01*
X143550551Y-116496835D01*
X143561541Y-116400669D01*
X143553365Y-116316100D01*
X143525805Y-116242781D01*
X143478642Y-116180363D01*
X143411658Y-116128498D01*
X143324633Y-116086840D01*
X143217350Y-116055038D01*
X143205009Y-116052455D01*
X143143772Y-116044000D01*
X143066692Y-116038337D01*
X142979002Y-116035424D01*
X142885934Y-116035217D01*
X142792720Y-116037670D01*
X142704594Y-116042739D01*
X142626788Y-116050381D01*
X142564533Y-116060552D01*
X142558666Y-116061833D01*
X142448121Y-116090874D01*
X142357575Y-116125390D01*
X142284953Y-116166544D01*
X142228181Y-116215501D01*
X142185184Y-116273426D01*
X142169615Y-116305380D01*
X142150722Y-116378216D01*
X142147465Y-116459557D01*
X141593231Y-116459557D01*
X141574231Y-116361490D01*
X141563265Y-116231836D01*
X141562219Y-116139330D01*
X141572014Y-116017989D01*
X141596174Y-115907901D01*
X141635785Y-115804611D01*
X141691932Y-115703662D01*
X141722883Y-115658497D01*
X141814115Y-115553089D01*
X141923106Y-115461462D01*
X142049726Y-115383668D01*
X142193845Y-115319759D01*
X142355332Y-115269786D01*
X142534059Y-115233802D01*
X142729895Y-115211857D01*
X142885934Y-115206100D01*
X142942711Y-115204006D01*
X143020158Y-115204732D01*
G37*
X143020158Y-115204732D02*
X143171594Y-115213311D01*
X143308283Y-115232167D01*
X143434276Y-115262163D01*
X143553625Y-115304164D01*
X143670381Y-115359031D01*
X143781179Y-115425833D01*
X143894739Y-115516637D01*
X143990211Y-115620292D01*
X144067073Y-115736113D01*
X144124797Y-115863414D01*
X144162858Y-116001511D01*
X144168666Y-116039207D01*
X144174396Y-116118248D01*
X144174583Y-116206371D01*
X144169539Y-116295764D01*
X144159578Y-116378616D01*
X144145012Y-116447113D01*
X144135364Y-116477965D01*
X144105123Y-116555270D01*
X144067617Y-116632321D01*
X144026614Y-116701800D01*
X143985879Y-116756385D01*
X143966505Y-116779084D01*
X143948662Y-116801799D01*
X143941778Y-116813221D01*
X143943424Y-116814463D01*
X143961205Y-116817272D01*
X143994370Y-116819224D01*
X144037733Y-116819955D01*
X144133689Y-116819955D01*
X144133689Y-117678104D01*
X144072974Y-117643839D01*
X144063868Y-117638645D01*
X144049249Y-117630285D01*
X144035173Y-117622712D01*
X144020540Y-117615888D01*
X144004249Y-117609773D01*
X143985198Y-117604327D01*
X143962286Y-117599513D01*
X143934413Y-117595292D01*
X143900478Y-117591623D01*
X143859379Y-117588469D01*
X143810015Y-117585789D01*
X143751286Y-117583546D01*
X143682090Y-117581701D01*
X143601326Y-117580213D01*
X143507894Y-117579045D01*
X143400692Y-117578156D01*
X143278620Y-117577509D01*
X143140576Y-117577064D01*
X142985459Y-117576782D01*
X142812168Y-117576625D01*
X142619603Y-117576552D01*
X142406662Y-117576526D01*
X142172245Y-117576507D01*
X140487378Y-117576311D01*
X140487378Y-116670983D01*
X140524067Y-116695415D01*
X140533647Y-116701682D01*
X140579981Y-116727792D01*
X140627102Y-116745531D01*
X140682251Y-116757092D01*
X140752667Y-116764669D01*
X140759650Y-116765161D01*
X140797641Y-116766938D01*
X140851576Y-116768556D01*
X140918703Y-116770001D01*
X140996271Y-116771260D01*
X141081528Y-116772320D01*
X141171724Y-116773171D01*
X141264107Y-116773797D01*
X141355925Y-116774188D01*
X141444427Y-116774330D01*
X141526862Y-116774210D01*
X141600479Y-116773817D01*
X141662526Y-116773138D01*
X141710251Y-116772159D01*
X141740904Y-116770868D01*
X141751733Y-116769253D01*
X141747333Y-116761043D01*
X141732362Y-116739353D01*
X141710448Y-116709986D01*
X141676236Y-116661121D01*
X141629714Y-116572875D01*
X141596046Y-116474084D01*
X141593231Y-116459557D01*
X142147465Y-116459557D01*
X142159389Y-116544681D01*
X142186040Y-116628867D01*
X142226962Y-116707392D01*
X142270530Y-116774800D01*
X143420721Y-116774800D01*
X143467089Y-116704244D01*
X143490791Y-116663583D01*
X143516639Y-116609454D01*
X143534829Y-116560311D01*
X143550551Y-116496835D01*
X143561541Y-116400669D01*
X143553365Y-116316100D01*
X143525805Y-116242781D01*
X143478642Y-116180363D01*
X143411658Y-116128498D01*
X143324633Y-116086840D01*
X143217350Y-116055038D01*
X143205009Y-116052455D01*
X143143772Y-116044000D01*
X143066692Y-116038337D01*
X142979002Y-116035424D01*
X142885934Y-116035217D01*
X142792720Y-116037670D01*
X142704594Y-116042739D01*
X142626788Y-116050381D01*
X142564533Y-116060552D01*
X142558666Y-116061833D01*
X142448121Y-116090874D01*
X142357575Y-116125390D01*
X142284953Y-116166544D01*
X142228181Y-116215501D01*
X142185184Y-116273426D01*
X142169615Y-116305380D01*
X142150722Y-116378216D01*
X142147465Y-116459557D01*
X141593231Y-116459557D01*
X141574231Y-116361490D01*
X141563265Y-116231836D01*
X141562219Y-116139330D01*
X141572014Y-116017989D01*
X141596174Y-115907901D01*
X141635785Y-115804611D01*
X141691932Y-115703662D01*
X141722883Y-115658497D01*
X141814115Y-115553089D01*
X141923106Y-115461462D01*
X142049726Y-115383668D01*
X142193845Y-115319759D01*
X142355332Y-115269786D01*
X142534059Y-115233802D01*
X142729895Y-115211857D01*
X142885934Y-115206100D01*
X142942711Y-115204006D01*
X143020158Y-115204732D01*
G36*
X145421567Y-108342041D02*
G01*
X145495789Y-108342299D01*
X145552541Y-108342970D01*
X145594512Y-108344248D01*
X145624389Y-108346327D01*
X145644861Y-108349401D01*
X145658614Y-108353666D01*
X145668337Y-108359316D01*
X145676717Y-108366545D01*
X145698181Y-108398009D01*
X145699947Y-108433174D01*
X145680267Y-108466178D01*
X145674398Y-108471484D01*
X145665314Y-108476934D01*
X145651973Y-108481100D01*
X145631757Y-108484154D01*
X145602049Y-108486268D01*
X145560232Y-108487614D01*
X145503689Y-108488362D01*
X145429802Y-108488686D01*
X145335956Y-108488755D01*
X145260294Y-108488716D01*
X145182385Y-108488461D01*
X145122375Y-108487817D01*
X145077648Y-108486613D01*
X145045585Y-108484676D01*
X145023571Y-108481836D01*
X145008987Y-108477921D01*
X144999218Y-108472758D01*
X144991645Y-108466178D01*
X144972623Y-108436994D01*
X144973463Y-108403863D01*
X144996776Y-108369709D01*
X145024485Y-108342000D01*
X145337537Y-108342000D01*
X145421567Y-108342041D01*
G37*
X145421567Y-108342041D02*
X145495789Y-108342299D01*
X145552541Y-108342970D01*
X145594512Y-108344248D01*
X145624389Y-108346327D01*
X145644861Y-108349401D01*
X145658614Y-108353666D01*
X145668337Y-108359316D01*
X145676717Y-108366545D01*
X145698181Y-108398009D01*
X145699947Y-108433174D01*
X145680267Y-108466178D01*
X145674398Y-108471484D01*
X145665314Y-108476934D01*
X145651973Y-108481100D01*
X145631757Y-108484154D01*
X145602049Y-108486268D01*
X145560232Y-108487614D01*
X145503689Y-108488362D01*
X145429802Y-108488686D01*
X145335956Y-108488755D01*
X145260294Y-108488716D01*
X145182385Y-108488461D01*
X145122375Y-108487817D01*
X145077648Y-108486613D01*
X145045585Y-108484676D01*
X145023571Y-108481836D01*
X145008987Y-108477921D01*
X144999218Y-108472758D01*
X144991645Y-108466178D01*
X144972623Y-108436994D01*
X144973463Y-108403863D01*
X144996776Y-108369709D01*
X145024485Y-108342000D01*
X145337537Y-108342000D01*
X145421567Y-108342041D01*
G36*
X145377631Y-116886891D02*
G01*
X145494000Y-116887375D01*
X145508175Y-116887443D01*
X145569937Y-116888029D01*
X145613620Y-116889352D01*
X145643001Y-116891897D01*
X145661855Y-116896152D01*
X145673959Y-116902604D01*
X145683089Y-116911738D01*
X145700506Y-116945196D01*
X145697604Y-116980144D01*
X145673100Y-117011047D01*
X145659897Y-117020056D01*
X145641361Y-117027508D01*
X145615333Y-117031876D01*
X145576787Y-117033931D01*
X145520700Y-117034444D01*
X145398045Y-117034444D01*
X145398045Y-117531155D01*
X145532871Y-117531155D01*
X145568662Y-117531228D01*
X145614992Y-117531991D01*
X145645526Y-117534167D01*
X145664557Y-117538464D01*
X145676374Y-117545588D01*
X145685271Y-117556245D01*
X145700341Y-117588496D01*
X145697673Y-117623783D01*
X145673100Y-117654514D01*
X145666845Y-117659169D01*
X145656321Y-117665105D01*
X145642391Y-117669636D01*
X145622317Y-117672952D01*
X145593360Y-117675241D01*
X145552780Y-117676692D01*
X145497840Y-117677495D01*
X145425799Y-117677838D01*
X145333920Y-117677911D01*
X145024485Y-117677911D01*
X144996776Y-117650202D01*
X144974533Y-117618823D01*
X144971844Y-117585594D01*
X144991645Y-117553733D01*
X145001415Y-117545447D01*
X145017307Y-117538035D01*
X145041275Y-117533698D01*
X145078148Y-117531662D01*
X145132756Y-117531155D01*
X145251289Y-117531155D01*
X145251289Y-117034444D01*
X145135776Y-117034444D01*
X145084078Y-117034006D01*
X145049554Y-117032042D01*
X145026978Y-117027526D01*
X145011126Y-117019433D01*
X144996776Y-117006735D01*
X144974533Y-116975357D01*
X144971844Y-116942128D01*
X144991645Y-116910266D01*
X144997835Y-116904634D01*
X145006041Y-116899544D01*
X145017817Y-116895457D01*
X145035276Y-116892279D01*
X145060530Y-116889913D01*
X145095690Y-116888262D01*
X145142869Y-116887231D01*
X145204177Y-116886723D01*
X145281727Y-116886641D01*
X145377631Y-116886891D01*
G37*
X145377631Y-116886891D02*
X145494000Y-116887375D01*
X145508175Y-116887443D01*
X145569937Y-116888029D01*
X145613620Y-116889352D01*
X145643001Y-116891897D01*
X145661855Y-116896152D01*
X145673959Y-116902604D01*
X145683089Y-116911738D01*
X145700506Y-116945196D01*
X145697604Y-116980144D01*
X145673100Y-117011047D01*
X145659897Y-117020056D01*
X145641361Y-117027508D01*
X145615333Y-117031876D01*
X145576787Y-117033931D01*
X145520700Y-117034444D01*
X145398045Y-117034444D01*
X145398045Y-117531155D01*
X145532871Y-117531155D01*
X145568662Y-117531228D01*
X145614992Y-117531991D01*
X145645526Y-117534167D01*
X145664557Y-117538464D01*
X145676374Y-117545588D01*
X145685271Y-117556245D01*
X145700341Y-117588496D01*
X145697673Y-117623783D01*
X145673100Y-117654514D01*
X145666845Y-117659169D01*
X145656321Y-117665105D01*
X145642391Y-117669636D01*
X145622317Y-117672952D01*
X145593360Y-117675241D01*
X145552780Y-117676692D01*
X145497840Y-117677495D01*
X145425799Y-117677838D01*
X145333920Y-117677911D01*
X145024485Y-117677911D01*
X144996776Y-117650202D01*
X144974533Y-117618823D01*
X144971844Y-117585594D01*
X144991645Y-117553733D01*
X145001415Y-117545447D01*
X145017307Y-117538035D01*
X145041275Y-117533698D01*
X145078148Y-117531662D01*
X145132756Y-117531155D01*
X145251289Y-117531155D01*
X145251289Y-117034444D01*
X145135776Y-117034444D01*
X145084078Y-117034006D01*
X145049554Y-117032042D01*
X145026978Y-117027526D01*
X145011126Y-117019433D01*
X144996776Y-117006735D01*
X144974533Y-116975357D01*
X144971844Y-116942128D01*
X144991645Y-116910266D01*
X144997835Y-116904634D01*
X145006041Y-116899544D01*
X145017817Y-116895457D01*
X145035276Y-116892279D01*
X145060530Y-116889913D01*
X145095690Y-116888262D01*
X145142869Y-116887231D01*
X145204177Y-116886723D01*
X145281727Y-116886641D01*
X145377631Y-116886891D01*
G36*
X145395526Y-112202825D02*
G01*
X145474311Y-112203050D01*
X145535021Y-112203668D01*
X145556089Y-112204225D01*
X145580396Y-112204867D01*
X145613175Y-112206837D01*
X145636095Y-112209765D01*
X145651897Y-112213842D01*
X145663319Y-112219257D01*
X145673100Y-112226197D01*
X145702845Y-112249594D01*
X145702251Y-112415286D01*
X145701953Y-112450082D01*
X145698522Y-112548565D01*
X145690839Y-112629527D01*
X145678282Y-112696621D01*
X145660227Y-112753504D01*
X145636052Y-112803831D01*
X145634135Y-112807190D01*
X145597417Y-112865002D01*
X145560451Y-112907356D01*
X145516966Y-112940172D01*
X145460689Y-112969372D01*
X145451073Y-112973654D01*
X145387887Y-112996231D01*
X145332509Y-113003203D01*
X145277483Y-112994601D01*
X145215351Y-112970459D01*
X145213658Y-112969663D01*
X145144236Y-112929212D01*
X145087638Y-112878527D01*
X145043070Y-112815802D01*
X145009741Y-112739226D01*
X144986861Y-112646991D01*
X144973636Y-112537288D01*
X144969275Y-112408309D01*
X144969270Y-112404737D01*
X144969372Y-112360844D01*
X145115822Y-112360844D01*
X145116270Y-112448333D01*
X145118746Y-112515253D01*
X145129998Y-112607651D01*
X145149537Y-112686966D01*
X145176511Y-112748940D01*
X145197240Y-112779880D01*
X145227006Y-112808000D01*
X145269434Y-112831340D01*
X145285400Y-112838467D01*
X145317902Y-112850291D01*
X145342333Y-112852721D01*
X145367061Y-112847108D01*
X145382939Y-112841382D01*
X145442847Y-112808452D01*
X145488600Y-112761114D01*
X145521736Y-112697348D01*
X145543790Y-112615139D01*
X145544292Y-112612345D01*
X145550255Y-112566060D01*
X145554483Y-112509664D01*
X145556089Y-112454726D01*
X145556089Y-112360844D01*
X145115822Y-112360844D01*
X144969372Y-112360844D01*
X144969410Y-112344717D01*
X144970446Y-112302786D01*
X144973040Y-112274672D01*
X144977853Y-112256103D01*
X144985544Y-112242806D01*
X144996776Y-112230509D01*
X145024485Y-112202800D01*
X145333920Y-112202800D01*
X145395526Y-112202825D01*
G37*
X145395526Y-112202825D02*
X145474311Y-112203050D01*
X145535021Y-112203668D01*
X145556089Y-112204225D01*
X145580396Y-112204867D01*
X145613175Y-112206837D01*
X145636095Y-112209765D01*
X145651897Y-112213842D01*
X145663319Y-112219257D01*
X145673100Y-112226197D01*
X145702845Y-112249594D01*
X145702251Y-112415286D01*
X145701953Y-112450082D01*
X145698522Y-112548565D01*
X145690839Y-112629527D01*
X145678282Y-112696621D01*
X145660227Y-112753504D01*
X145636052Y-112803831D01*
X145634135Y-112807190D01*
X145597417Y-112865002D01*
X145560451Y-112907356D01*
X145516966Y-112940172D01*
X145460689Y-112969372D01*
X145451073Y-112973654D01*
X145387887Y-112996231D01*
X145332509Y-113003203D01*
X145277483Y-112994601D01*
X145215351Y-112970459D01*
X145213658Y-112969663D01*
X145144236Y-112929212D01*
X145087638Y-112878527D01*
X145043070Y-112815802D01*
X145009741Y-112739226D01*
X144986861Y-112646991D01*
X144973636Y-112537288D01*
X144969275Y-112408309D01*
X144969270Y-112404737D01*
X144969372Y-112360844D01*
X145115822Y-112360844D01*
X145116270Y-112448333D01*
X145118746Y-112515253D01*
X145129998Y-112607651D01*
X145149537Y-112686966D01*
X145176511Y-112748940D01*
X145197240Y-112779880D01*
X145227006Y-112808000D01*
X145269434Y-112831340D01*
X145285400Y-112838467D01*
X145317902Y-112850291D01*
X145342333Y-112852721D01*
X145367061Y-112847108D01*
X145382939Y-112841382D01*
X145442847Y-112808452D01*
X145488600Y-112761114D01*
X145521736Y-112697348D01*
X145543790Y-112615139D01*
X145544292Y-112612345D01*
X145550255Y-112566060D01*
X145554483Y-112509664D01*
X145556089Y-112454726D01*
X145556089Y-112360844D01*
X145115822Y-112360844D01*
X144969372Y-112360844D01*
X144969410Y-112344717D01*
X144970446Y-112302786D01*
X144973040Y-112274672D01*
X144977853Y-112256103D01*
X144985544Y-112242806D01*
X144996776Y-112230509D01*
X145024485Y-112202800D01*
X145333920Y-112202800D01*
X145395526Y-112202825D01*
G36*
X145051915Y-114094772D02*
G01*
X145086481Y-114107636D01*
X145134826Y-114127395D01*
X145193825Y-114152619D01*
X145260355Y-114181881D01*
X145331291Y-114213750D01*
X145403507Y-114246799D01*
X145473880Y-114279599D01*
X145539285Y-114310720D01*
X145596597Y-114338735D01*
X145642692Y-114362214D01*
X145674446Y-114379728D01*
X145688733Y-114389849D01*
X145702102Y-114424257D01*
X145695741Y-114465954D01*
X145691044Y-114471319D01*
X145668893Y-114487148D01*
X145632132Y-114509350D01*
X145584415Y-114535767D01*
X145529393Y-114564240D01*
X145370150Y-114644014D01*
X145516742Y-114717201D01*
X145536032Y-114726897D01*
X145588380Y-114753875D01*
X145633170Y-114777904D01*
X145666154Y-114796668D01*
X145683089Y-114807854D01*
X145684332Y-114809000D01*
X145699619Y-114837121D01*
X145701302Y-114872183D01*
X145688733Y-114903224D01*
X145685884Y-114905650D01*
X145665259Y-114917910D01*
X145627708Y-114937648D01*
X145575880Y-114963552D01*
X145512423Y-114994315D01*
X145439985Y-115028625D01*
X145361216Y-115065175D01*
X145317093Y-115085415D01*
X145236365Y-115122188D01*
X145172687Y-115150645D01*
X145123752Y-115171669D01*
X145087257Y-115186146D01*
X145060895Y-115194961D01*
X145042361Y-115198996D01*
X145029352Y-115199138D01*
X145019561Y-115196270D01*
X144998678Y-115181613D01*
X144978377Y-115155010D01*
X144978035Y-115154255D01*
X144971034Y-115134665D01*
X144970504Y-115117210D01*
X144978478Y-115100298D01*
X144996989Y-115082337D01*
X145028071Y-115061737D01*
X145073756Y-115036905D01*
X145136078Y-115006250D01*
X145217071Y-114968180D01*
X145248454Y-114953546D01*
X145311638Y-114923797D01*
X145366244Y-114897703D01*
X145409290Y-114876708D01*
X145437793Y-114862261D01*
X145448770Y-114855809D01*
X145448189Y-114854450D01*
X145434242Y-114844458D01*
X145404704Y-114827167D01*
X145363087Y-114804570D01*
X145312903Y-114778662D01*
X145281414Y-114762689D01*
X145226061Y-114733739D01*
X145187044Y-114711251D01*
X145161566Y-114693035D01*
X145146831Y-114676904D01*
X145140042Y-114660670D01*
X145138400Y-114642143D01*
X145138875Y-114631640D01*
X145143082Y-114615524D01*
X145153946Y-114600210D01*
X145174219Y-114583612D01*
X145206654Y-114563643D01*
X145254004Y-114538217D01*
X145319022Y-114505248D01*
X145338277Y-114495515D01*
X145384946Y-114471057D01*
X145421109Y-114450822D01*
X145443497Y-114436689D01*
X145448845Y-114430540D01*
X145445573Y-114429173D01*
X145424664Y-114419798D01*
X145387725Y-114402938D01*
X145337874Y-114380021D01*
X145278226Y-114352480D01*
X145211898Y-114321745D01*
X145154677Y-114295030D01*
X145092688Y-114265407D01*
X145046949Y-114242336D01*
X145014908Y-114224357D01*
X144994014Y-114210010D01*
X144981718Y-114197834D01*
X144975466Y-114186368D01*
X144972574Y-114176958D01*
X144972425Y-114151853D01*
X144987768Y-114124710D01*
X144988753Y-114123410D01*
X145011388Y-114101326D01*
X145033613Y-114090277D01*
X145034253Y-114090231D01*
X145051915Y-114094772D01*
G37*
X145051915Y-114094772D02*
X145086481Y-114107636D01*
X145134826Y-114127395D01*
X145193825Y-114152619D01*
X145260355Y-114181881D01*
X145331291Y-114213750D01*
X145403507Y-114246799D01*
X145473880Y-114279599D01*
X145539285Y-114310720D01*
X145596597Y-114338735D01*
X145642692Y-114362214D01*
X145674446Y-114379728D01*
X145688733Y-114389849D01*
X145702102Y-114424257D01*
X145695741Y-114465954D01*
X145691044Y-114471319D01*
X145668893Y-114487148D01*
X145632132Y-114509350D01*
X145584415Y-114535767D01*
X145529393Y-114564240D01*
X145370150Y-114644014D01*
X145516742Y-114717201D01*
X145536032Y-114726897D01*
X145588380Y-114753875D01*
X145633170Y-114777904D01*
X145666154Y-114796668D01*
X145683089Y-114807854D01*
X145684332Y-114809000D01*
X145699619Y-114837121D01*
X145701302Y-114872183D01*
X145688733Y-114903224D01*
X145685884Y-114905650D01*
X145665259Y-114917910D01*
X145627708Y-114937648D01*
X145575880Y-114963552D01*
X145512423Y-114994315D01*
X145439985Y-115028625D01*
X145361216Y-115065175D01*
X145317093Y-115085415D01*
X145236365Y-115122188D01*
X145172687Y-115150645D01*
X145123752Y-115171669D01*
X145087257Y-115186146D01*
X145060895Y-115194961D01*
X145042361Y-115198996D01*
X145029352Y-115199138D01*
X145019561Y-115196270D01*
X144998678Y-115181613D01*
X144978377Y-115155010D01*
X144978035Y-115154255D01*
X144971034Y-115134665D01*
X144970504Y-115117210D01*
X144978478Y-115100298D01*
X144996989Y-115082337D01*
X145028071Y-115061737D01*
X145073756Y-115036905D01*
X145136078Y-115006250D01*
X145217071Y-114968180D01*
X145248454Y-114953546D01*
X145311638Y-114923797D01*
X145366244Y-114897703D01*
X145409290Y-114876708D01*
X145437793Y-114862261D01*
X145448770Y-114855809D01*
X145448189Y-114854450D01*
X145434242Y-114844458D01*
X145404704Y-114827167D01*
X145363087Y-114804570D01*
X145312903Y-114778662D01*
X145281414Y-114762689D01*
X145226061Y-114733739D01*
X145187044Y-114711251D01*
X145161566Y-114693035D01*
X145146831Y-114676904D01*
X145140042Y-114660670D01*
X145138400Y-114642143D01*
X145138875Y-114631640D01*
X145143082Y-114615524D01*
X145153946Y-114600210D01*
X145174219Y-114583612D01*
X145206654Y-114563643D01*
X145254004Y-114538217D01*
X145319022Y-114505248D01*
X145338277Y-114495515D01*
X145384946Y-114471057D01*
X145421109Y-114450822D01*
X145443497Y-114436689D01*
X145448845Y-114430540D01*
X145445573Y-114429173D01*
X145424664Y-114419798D01*
X145387725Y-114402938D01*
X145337874Y-114380021D01*
X145278226Y-114352480D01*
X145211898Y-114321745D01*
X145154677Y-114295030D01*
X145092688Y-114265407D01*
X145046949Y-114242336D01*
X145014908Y-114224357D01*
X144994014Y-114210010D01*
X144981718Y-114197834D01*
X144975466Y-114186368D01*
X144972574Y-114176958D01*
X144972425Y-114151853D01*
X144987768Y-114124710D01*
X144988753Y-114123410D01*
X145011388Y-114101326D01*
X145033613Y-114090277D01*
X145034253Y-114090231D01*
X145051915Y-114094772D01*
G36*
X145095178Y-115879083D02*
G01*
X145096631Y-115880443D01*
X145104992Y-115891646D01*
X145110547Y-115908748D01*
X145113840Y-115935918D01*
X145115418Y-115977322D01*
X145115822Y-116037127D01*
X145115822Y-116176489D01*
X145379589Y-116176489D01*
X145455417Y-116176564D01*
X145522083Y-116176972D01*
X145571867Y-116177954D01*
X145607784Y-116179750D01*
X145632850Y-116182601D01*
X145650081Y-116186747D01*
X145662492Y-116192429D01*
X145673100Y-116199886D01*
X145675906Y-116202176D01*
X145698548Y-116233354D01*
X145700112Y-116267734D01*
X145680267Y-116300666D01*
X145672191Y-116307645D01*
X145661593Y-116313117D01*
X145645749Y-116317137D01*
X145621773Y-116319928D01*
X145586774Y-116321712D01*
X145537864Y-116322711D01*
X145472154Y-116323148D01*
X145386756Y-116323244D01*
X145115822Y-116323244D01*
X145115822Y-116469180D01*
X145115821Y-116480280D01*
X145115596Y-116536798D01*
X145114457Y-116575642D01*
X145111657Y-116601035D01*
X145106450Y-116617196D01*
X145098089Y-116628348D01*
X145085826Y-116638711D01*
X145055138Y-116654559D01*
X145021358Y-116651457D01*
X144988822Y-116625813D01*
X144985105Y-116620871D01*
X144980269Y-116610662D01*
X144976506Y-116595236D01*
X144973683Y-116572114D01*
X144971670Y-116538817D01*
X144970333Y-116492863D01*
X144969542Y-116431772D01*
X144969163Y-116353065D01*
X144969067Y-116254260D01*
X144969068Y-116234233D01*
X144969158Y-116140110D01*
X144969498Y-116065595D01*
X144970239Y-116008189D01*
X144971535Y-115965389D01*
X144973537Y-115934696D01*
X144976396Y-115913609D01*
X144980266Y-115899627D01*
X144985298Y-115890250D01*
X144991645Y-115882978D01*
X145024362Y-115864172D01*
X145061939Y-115862725D01*
X145095178Y-115879083D01*
G37*
X145095178Y-115879083D02*
X145096631Y-115880443D01*
X145104992Y-115891646D01*
X145110547Y-115908748D01*
X145113840Y-115935918D01*
X145115418Y-115977322D01*
X145115822Y-116037127D01*
X145115822Y-116176489D01*
X145379589Y-116176489D01*
X145455417Y-116176564D01*
X145522083Y-116176972D01*
X145571867Y-116177954D01*
X145607784Y-116179750D01*
X145632850Y-116182601D01*
X145650081Y-116186747D01*
X145662492Y-116192429D01*
X145673100Y-116199886D01*
X145675906Y-116202176D01*
X145698548Y-116233354D01*
X145700112Y-116267734D01*
X145680267Y-116300666D01*
X145672191Y-116307645D01*
X145661593Y-116313117D01*
X145645749Y-116317137D01*
X145621773Y-116319928D01*
X145586774Y-116321712D01*
X145537864Y-116322711D01*
X145472154Y-116323148D01*
X145386756Y-116323244D01*
X145115822Y-116323244D01*
X145115822Y-116469180D01*
X145115821Y-116480280D01*
X145115596Y-116536798D01*
X145114457Y-116575642D01*
X145111657Y-116601035D01*
X145106450Y-116617196D01*
X145098089Y-116628348D01*
X145085826Y-116638711D01*
X145055138Y-116654559D01*
X145021358Y-116651457D01*
X144988822Y-116625813D01*
X144985105Y-116620871D01*
X144980269Y-116610662D01*
X144976506Y-116595236D01*
X144973683Y-116572114D01*
X144971670Y-116538817D01*
X144970333Y-116492863D01*
X144969542Y-116431772D01*
X144969163Y-116353065D01*
X144969067Y-116254260D01*
X144969068Y-116234233D01*
X144969158Y-116140110D01*
X144969498Y-116065595D01*
X144970239Y-116008189D01*
X144971535Y-115965389D01*
X144973537Y-115934696D01*
X144976396Y-115913609D01*
X144980266Y-115899627D01*
X144985298Y-115890250D01*
X144991645Y-115882978D01*
X145024362Y-115864172D01*
X145061939Y-115862725D01*
X145095178Y-115879083D01*
G36*
X140234307Y-108585331D02*
G01*
X140275450Y-108587540D01*
X140307582Y-108593106D01*
X140338122Y-108603414D01*
X140374489Y-108619852D01*
X140401728Y-108633800D01*
X140487429Y-108692335D01*
X140556617Y-108764381D01*
X140607741Y-108848053D01*
X140639250Y-108941469D01*
X140646225Y-108974566D01*
X140653094Y-109015040D01*
X140654919Y-109048001D01*
X140651947Y-109082302D01*
X140644426Y-109126800D01*
X140632002Y-109178066D01*
X140594112Y-109268566D01*
X140539836Y-109347655D01*
X140471770Y-109413472D01*
X140392511Y-109464160D01*
X140304654Y-109497860D01*
X140210795Y-109512714D01*
X140113530Y-109506864D01*
X140017220Y-109480601D01*
X139928494Y-109435582D01*
X139853419Y-109374627D01*
X139793641Y-109299816D01*
X139750809Y-109213232D01*
X139726571Y-109116957D01*
X139722576Y-109013072D01*
X139732850Y-108935438D01*
X139760053Y-108852687D01*
X139805484Y-108777594D01*
X139871302Y-108705702D01*
X139915567Y-108667154D01*
X139973961Y-108627744D01*
X140034586Y-108602554D01*
X140103865Y-108589139D01*
X140188222Y-108585052D01*
X140234307Y-108585331D01*
G37*
X140234307Y-108585331D02*
X140275450Y-108587540D01*
X140307582Y-108593106D01*
X140338122Y-108603414D01*
X140374489Y-108619852D01*
X140401728Y-108633800D01*
X140487429Y-108692335D01*
X140556617Y-108764381D01*
X140607741Y-108848053D01*
X140639250Y-108941469D01*
X140646225Y-108974566D01*
X140653094Y-109015040D01*
X140654919Y-109048001D01*
X140651947Y-109082302D01*
X140644426Y-109126800D01*
X140632002Y-109178066D01*
X140594112Y-109268566D01*
X140539836Y-109347655D01*
X140471770Y-109413472D01*
X140392511Y-109464160D01*
X140304654Y-109497860D01*
X140210795Y-109512714D01*
X140113530Y-109506864D01*
X140017220Y-109480601D01*
X139928494Y-109435582D01*
X139853419Y-109374627D01*
X139793641Y-109299816D01*
X139750809Y-109213232D01*
X139726571Y-109116957D01*
X139722576Y-109013072D01*
X139732850Y-108935438D01*
X139760053Y-108852687D01*
X139805484Y-108777594D01*
X139871302Y-108705702D01*
X139915567Y-108667154D01*
X139973961Y-108627744D01*
X140034586Y-108602554D01*
X140103865Y-108589139D01*
X140188222Y-108585052D01*
X140234307Y-108585331D01*
G36*
X140943011Y-105113941D02*
G01*
X141090216Y-105113638D01*
X141254349Y-105113452D01*
X141436352Y-105113358D01*
X141637165Y-105113329D01*
X141857732Y-105113339D01*
X142098992Y-105113364D01*
X142361889Y-105113378D01*
X142404040Y-105113378D01*
X142664668Y-105113354D01*
X142903796Y-105113315D01*
X143122360Y-105113292D01*
X143321295Y-105113313D01*
X143501535Y-105113407D01*
X143664015Y-105113605D01*
X143809670Y-105113937D01*
X143939434Y-105114431D01*
X144054243Y-105115117D01*
X144155030Y-105116024D01*
X144242730Y-105117183D01*
X144318279Y-105118622D01*
X144382611Y-105120371D01*
X144436661Y-105122460D01*
X144481363Y-105124917D01*
X144517652Y-105127773D01*
X144546463Y-105131057D01*
X144568731Y-105134798D01*
X144585390Y-105139026D01*
X144597375Y-105143771D01*
X144605621Y-105149061D01*
X144611062Y-105154927D01*
X144614634Y-105161398D01*
X144617270Y-105168503D01*
X144619906Y-105176272D01*
X144623477Y-105184734D01*
X144625145Y-105189092D01*
X144627111Y-105197605D01*
X144628911Y-105210306D01*
X144630555Y-105228115D01*
X144632047Y-105251951D01*
X144633397Y-105282734D01*
X144634611Y-105321383D01*
X144635697Y-105368818D01*
X144636661Y-105425957D01*
X144637511Y-105493721D01*
X144638253Y-105573029D01*
X144638897Y-105664801D01*
X144639447Y-105769956D01*
X144639913Y-105889413D01*
X144640300Y-106024092D01*
X144640616Y-106174912D01*
X144640869Y-106342794D01*
X144641066Y-106528655D01*
X144641213Y-106733417D01*
X144641318Y-106957998D01*
X144641389Y-107203318D01*
X144641432Y-107470296D01*
X144641437Y-107508679D01*
X144641480Y-107774078D01*
X144641525Y-108017950D01*
X144641548Y-108241217D01*
X144641524Y-108444804D01*
X144641430Y-108629633D01*
X144641243Y-108796627D01*
X144640939Y-108946710D01*
X144640494Y-109080804D01*
X144639885Y-109199834D01*
X144639089Y-109304721D01*
X144638080Y-109396390D01*
X144636837Y-109475763D01*
X144635335Y-109543763D01*
X144633551Y-109601314D01*
X144631461Y-109649338D01*
X144629042Y-109688760D01*
X144626270Y-109720501D01*
X144623121Y-109745486D01*
X144619572Y-109764636D01*
X144615598Y-109778877D01*
X144611178Y-109789129D01*
X144606286Y-109796318D01*
X144600900Y-109801365D01*
X144594996Y-109805195D01*
X144588549Y-109808729D01*
X144581537Y-109812892D01*
X144579687Y-109813975D01*
X144574180Y-109816187D01*
X144565868Y-109818214D01*
X144553809Y-109820062D01*
X144537063Y-109821739D01*
X144514687Y-109823255D01*
X144485740Y-109824617D01*
X144449280Y-109825833D01*
X144404367Y-109826911D01*
X144350057Y-109827860D01*
X144285410Y-109828688D01*
X144209484Y-109829403D01*
X144121338Y-109830013D01*
X144020029Y-109830526D01*
X143904617Y-109830950D01*
X143774160Y-109831294D01*
X143627716Y-109831566D01*
X143464344Y-109831773D01*
X143283101Y-109831924D01*
X143083048Y-109832028D01*
X142863241Y-109832092D01*
X142622739Y-109832124D01*
X142360602Y-109832133D01*
X140169031Y-109832133D01*
X140130649Y-109793751D01*
X140106911Y-109766645D01*
X140095111Y-109739747D01*
X140092267Y-109703440D01*
X140092267Y-109651511D01*
X140180206Y-109651511D01*
X140230102Y-109649573D01*
X140340523Y-109630801D01*
X140441987Y-109593783D01*
X140533152Y-109540631D01*
X140612673Y-109473454D01*
X140634249Y-109447805D01*
X141604978Y-109447805D01*
X142781845Y-109450880D01*
X143958711Y-109453955D01*
X144017622Y-109480593D01*
X144042183Y-109492515D01*
X144072434Y-109509754D01*
X144089560Y-109522926D01*
X144097591Y-109530924D01*
X144112493Y-109538622D01*
X144113765Y-109534740D01*
X144115791Y-109511480D01*
X144117626Y-109469126D01*
X144119227Y-109409868D01*
X144120549Y-109335893D01*
X144121548Y-109249390D01*
X144122180Y-109152548D01*
X144122400Y-109047555D01*
X144122349Y-108978644D01*
X144122091Y-108880393D01*
X144121637Y-108790970D01*
X144121010Y-108712667D01*
X144120235Y-108647777D01*
X144119335Y-108598589D01*
X144118334Y-108567396D01*
X144117257Y-108556489D01*
X144114037Y-108557678D01*
X144096452Y-108567824D01*
X144070158Y-108584960D01*
X144057691Y-108593460D01*
X144043622Y-108602671D01*
X144029351Y-108610767D01*
X144013479Y-108617815D01*
X143994609Y-108623883D01*
X143971341Y-108629039D01*
X143942278Y-108633349D01*
X143906021Y-108636881D01*
X143861170Y-108639703D01*
X143806328Y-108641882D01*
X143740097Y-108643486D01*
X143661077Y-108644581D01*
X143567871Y-108645235D01*
X143459079Y-108645516D01*
X143333303Y-108645491D01*
X143189145Y-108645228D01*
X143025207Y-108644794D01*
X142840089Y-108644255D01*
X142661232Y-108643721D01*
X142502374Y-108643195D01*
X142363316Y-108642650D01*
X142242665Y-108642055D01*
X142139028Y-108641381D01*
X142051011Y-108640597D01*
X141977223Y-108639674D01*
X141916269Y-108638581D01*
X141866757Y-108637288D01*
X141827293Y-108635765D01*
X141796484Y-108633981D01*
X141772938Y-108631908D01*
X141755260Y-108629514D01*
X141742059Y-108626770D01*
X141731940Y-108623644D01*
X141723511Y-108620108D01*
X141715375Y-108616209D01*
X141678544Y-108596562D01*
X141648391Y-108577775D01*
X141646908Y-108576728D01*
X141624659Y-108562398D01*
X141611702Y-108556489D01*
X141611249Y-108557496D01*
X141609803Y-108574695D01*
X141608480Y-108611344D01*
X141607316Y-108665038D01*
X141606347Y-108733370D01*
X141605611Y-108813936D01*
X141605142Y-108904330D01*
X141604978Y-109002147D01*
X141604978Y-109447805D01*
X140634249Y-109447805D01*
X140679205Y-109394362D01*
X140731406Y-109305466D01*
X140767930Y-109208875D01*
X140787434Y-109106700D01*
X140788573Y-109001050D01*
X140770005Y-108894036D01*
X140730384Y-108787768D01*
X140672516Y-108690781D01*
X140597684Y-108605707D01*
X140509615Y-108536985D01*
X140410616Y-108486082D01*
X140302993Y-108454465D01*
X140189054Y-108443600D01*
X140092267Y-108443600D01*
X140092267Y-107215884D01*
X140701867Y-107215884D01*
X140702117Y-108347644D01*
X140732722Y-108308133D01*
X140740089Y-108298752D01*
X140794438Y-108235817D01*
X140862259Y-108167003D01*
X140945516Y-108090404D01*
X141046178Y-108004112D01*
X141066847Y-107986948D01*
X141116409Y-107946167D01*
X141177326Y-107896412D01*
X141247898Y-107839045D01*
X141326424Y-107775431D01*
X141411204Y-107706931D01*
X141500537Y-107634910D01*
X141592722Y-107560730D01*
X141611702Y-107545483D01*
X141686060Y-107485754D01*
X141778848Y-107411347D01*
X141869388Y-107338869D01*
X141955978Y-107269686D01*
X142036918Y-107205159D01*
X142110506Y-107146653D01*
X142175044Y-107095530D01*
X142228829Y-107053153D01*
X142270162Y-107020885D01*
X142297342Y-107000090D01*
X142308668Y-106992131D01*
X142312771Y-106993889D01*
X142333334Y-107006770D01*
X142369561Y-107031115D01*
X142419824Y-107065753D01*
X142482492Y-107109514D01*
X142555936Y-107161225D01*
X142638527Y-107219716D01*
X142728636Y-107283816D01*
X142824631Y-107352354D01*
X142924885Y-107424157D01*
X143027768Y-107498056D01*
X143131650Y-107572879D01*
X143234901Y-107647455D01*
X143335892Y-107720613D01*
X143432994Y-107791181D01*
X143524577Y-107857989D01*
X143609011Y-107919865D01*
X143684667Y-107975639D01*
X143749916Y-108024138D01*
X143803128Y-108064193D01*
X143842673Y-108094631D01*
X143868026Y-108115056D01*
X143922295Y-108161101D01*
X143978775Y-108211388D01*
X144028669Y-108258185D01*
X144122400Y-108349349D01*
X144122400Y-107194910D01*
X144046200Y-107195544D01*
X144004160Y-107194426D01*
X143968334Y-107188696D01*
X143930772Y-107176110D01*
X143882577Y-107154432D01*
X143875897Y-107151211D01*
X143826359Y-107125812D01*
X143778369Y-107099004D01*
X143741466Y-107076083D01*
X143734834Y-107071515D01*
X143703593Y-107049484D01*
X143658654Y-107017307D01*
X143602147Y-106976543D01*
X143536204Y-106928755D01*
X143462957Y-106875502D01*
X143384536Y-106818345D01*
X143303072Y-106758845D01*
X143220698Y-106698563D01*
X143139544Y-106639060D01*
X143061742Y-106581895D01*
X142989423Y-106528630D01*
X142924718Y-106480826D01*
X142869759Y-106440043D01*
X142826676Y-106407842D01*
X142797602Y-106385784D01*
X142784667Y-106375429D01*
X142780351Y-106370956D01*
X142778312Y-106366764D01*
X142780926Y-106363357D01*
X142789986Y-106360675D01*
X142807285Y-106358659D01*
X142834614Y-106357252D01*
X142873765Y-106356395D01*
X142926533Y-106356030D01*
X142994707Y-106356097D01*
X143080082Y-106356540D01*
X143184449Y-106357298D01*
X143309600Y-106358315D01*
X143354300Y-106358692D01*
X143475395Y-106359831D01*
X143576688Y-106361028D01*
X143660262Y-106362364D01*
X143728204Y-106363923D01*
X143782599Y-106365785D01*
X143825532Y-106368034D01*
X143859089Y-106370752D01*
X143885355Y-106374021D01*
X143906416Y-106377922D01*
X143924357Y-106382539D01*
X143950770Y-106390808D01*
X144012772Y-106414417D01*
X144065573Y-106440315D01*
X144102645Y-106465465D01*
X144104075Y-106466661D01*
X144108424Y-106468832D01*
X144112026Y-106466672D01*
X144114951Y-106458356D01*
X144117269Y-106442060D01*
X144119051Y-106415959D01*
X144120367Y-106378229D01*
X144121286Y-106327044D01*
X144121878Y-106260580D01*
X144122215Y-106177013D01*
X144122365Y-106074517D01*
X144122400Y-105951268D01*
X144122400Y-105419704D01*
X144064783Y-105458477D01*
X144055893Y-105464568D01*
X144041069Y-105475024D01*
X144027422Y-105484421D01*
X144013765Y-105492817D01*
X143998911Y-105500267D01*
X143981670Y-105506827D01*
X143960855Y-105512554D01*
X143935280Y-105517505D01*
X143903755Y-105521734D01*
X143865093Y-105525299D01*
X143818107Y-105528256D01*
X143761608Y-105530660D01*
X143694409Y-105532569D01*
X143615322Y-105534038D01*
X143523160Y-105535124D01*
X143416734Y-105535882D01*
X143294857Y-105536370D01*
X143156341Y-105536642D01*
X142999999Y-105536757D01*
X142824642Y-105536769D01*
X142629082Y-105536735D01*
X142412133Y-105536711D01*
X142289513Y-105536720D01*
X142084447Y-105536757D01*
X141900116Y-105536773D01*
X141735334Y-105536712D01*
X141588916Y-105536516D01*
X141459674Y-105536130D01*
X141346422Y-105535495D01*
X141247975Y-105534556D01*
X141163144Y-105533255D01*
X141090744Y-105531536D01*
X141029589Y-105529341D01*
X140978492Y-105526615D01*
X140936267Y-105523299D01*
X140901727Y-105519338D01*
X140873686Y-105514675D01*
X140850958Y-105509253D01*
X140832356Y-105503014D01*
X140816693Y-105495903D01*
X140802784Y-105487862D01*
X140789441Y-105478834D01*
X140775479Y-105468764D01*
X140759711Y-105457593D01*
X140701867Y-105417803D01*
X140701867Y-106477686D01*
X140764966Y-106439689D01*
X140790005Y-106425007D01*
X140817586Y-106410469D01*
X140845700Y-106398373D01*
X140876551Y-106388468D01*
X140912344Y-106380506D01*
X140955283Y-106374239D01*
X141007574Y-106369418D01*
X141071419Y-106365794D01*
X141149025Y-106363119D01*
X141242594Y-106361143D01*
X141354333Y-106359618D01*
X141486445Y-106358296D01*
X141606434Y-106357387D01*
X141723063Y-106356980D01*
X141818531Y-106357233D01*
X141892556Y-106358143D01*
X141944855Y-106359707D01*
X141975149Y-106361921D01*
X141983156Y-106364780D01*
X141979858Y-106367839D01*
X141958408Y-106385994D01*
X141921889Y-106415725D01*
X141872442Y-106455361D01*
X141812207Y-106503229D01*
X141743327Y-106557657D01*
X141667943Y-106616973D01*
X141588196Y-106679505D01*
X141506228Y-106743579D01*
X141424180Y-106807525D01*
X141344194Y-106869669D01*
X141268411Y-106928339D01*
X141198973Y-106981863D01*
X141138021Y-107028570D01*
X141087696Y-107066786D01*
X141050140Y-107094839D01*
X141027495Y-107111057D01*
X140955212Y-107156365D01*
X140875463Y-107196339D01*
X140807188Y-107217870D01*
X140749844Y-107221173D01*
X140701867Y-107215884D01*
X140092267Y-107215884D01*
X140092267Y-106823247D01*
X140092280Y-106612103D01*
X140092330Y-106407980D01*
X140092430Y-106224314D01*
X140092592Y-106060009D01*
X140092829Y-105913971D01*
X140093153Y-105785106D01*
X140093575Y-105672317D01*
X140094109Y-105574512D01*
X140094767Y-105490596D01*
X140095561Y-105419473D01*
X140096504Y-105360050D01*
X140097608Y-105311232D01*
X140098884Y-105271923D01*
X140100347Y-105241031D01*
X140102007Y-105217459D01*
X140103878Y-105200114D01*
X140105972Y-105187901D01*
X140108300Y-105179725D01*
X140110876Y-105174492D01*
X140114445Y-105168496D01*
X140117978Y-105161721D01*
X140121488Y-105155522D01*
X140125918Y-105149874D01*
X140132208Y-105144753D01*
X140141301Y-105140131D01*
X140154139Y-105135985D01*
X140171662Y-105132287D01*
X140194813Y-105129013D01*
X140224534Y-105126137D01*
X140261765Y-105123633D01*
X140307449Y-105121476D01*
X140362527Y-105119640D01*
X140427941Y-105118100D01*
X140504633Y-105116830D01*
X140593544Y-105115805D01*
X140695617Y-105114999D01*
X140701867Y-105114966D01*
X140811792Y-105114386D01*
X140943011Y-105113941D01*
G37*
X140943011Y-105113941D02*
X141090216Y-105113638D01*
X141254349Y-105113452D01*
X141436352Y-105113358D01*
X141637165Y-105113329D01*
X141857732Y-105113339D01*
X142098992Y-105113364D01*
X142361889Y-105113378D01*
X142404040Y-105113378D01*
X142664668Y-105113354D01*
X142903796Y-105113315D01*
X143122360Y-105113292D01*
X143321295Y-105113313D01*
X143501535Y-105113407D01*
X143664015Y-105113605D01*
X143809670Y-105113937D01*
X143939434Y-105114431D01*
X144054243Y-105115117D01*
X144155030Y-105116024D01*
X144242730Y-105117183D01*
X144318279Y-105118622D01*
X144382611Y-105120371D01*
X144436661Y-105122460D01*
X144481363Y-105124917D01*
X144517652Y-105127773D01*
X144546463Y-105131057D01*
X144568731Y-105134798D01*
X144585390Y-105139026D01*
X144597375Y-105143771D01*
X144605621Y-105149061D01*
X144611062Y-105154927D01*
X144614634Y-105161398D01*
X144617270Y-105168503D01*
X144619906Y-105176272D01*
X144623477Y-105184734D01*
X144625145Y-105189092D01*
X144627111Y-105197605D01*
X144628911Y-105210306D01*
X144630555Y-105228115D01*
X144632047Y-105251951D01*
X144633397Y-105282734D01*
X144634611Y-105321383D01*
X144635697Y-105368818D01*
X144636661Y-105425957D01*
X144637511Y-105493721D01*
X144638253Y-105573029D01*
X144638897Y-105664801D01*
X144639447Y-105769956D01*
X144639913Y-105889413D01*
X144640300Y-106024092D01*
X144640616Y-106174912D01*
X144640869Y-106342794D01*
X144641066Y-106528655D01*
X144641213Y-106733417D01*
X144641318Y-106957998D01*
X144641389Y-107203318D01*
X144641432Y-107470296D01*
X144641437Y-107508679D01*
X144641480Y-107774078D01*
X144641525Y-108017950D01*
X144641548Y-108241217D01*
X144641524Y-108444804D01*
X144641430Y-108629633D01*
X144641243Y-108796627D01*
X144640939Y-108946710D01*
X144640494Y-109080804D01*
X144639885Y-109199834D01*
X144639089Y-109304721D01*
X144638080Y-109396390D01*
X144636837Y-109475763D01*
X144635335Y-109543763D01*
X144633551Y-109601314D01*
X144631461Y-109649338D01*
X144629042Y-109688760D01*
X144626270Y-109720501D01*
X144623121Y-109745486D01*
X144619572Y-109764636D01*
X144615598Y-109778877D01*
X144611178Y-109789129D01*
X144606286Y-109796318D01*
X144600900Y-109801365D01*
X144594996Y-109805195D01*
X144588549Y-109808729D01*
X144581537Y-109812892D01*
X144579687Y-109813975D01*
X144574180Y-109816187D01*
X144565868Y-109818214D01*
X144553809Y-109820062D01*
X144537063Y-109821739D01*
X144514687Y-109823255D01*
X144485740Y-109824617D01*
X144449280Y-109825833D01*
X144404367Y-109826911D01*
X144350057Y-109827860D01*
X144285410Y-109828688D01*
X144209484Y-109829403D01*
X144121338Y-109830013D01*
X144020029Y-109830526D01*
X143904617Y-109830950D01*
X143774160Y-109831294D01*
X143627716Y-109831566D01*
X143464344Y-109831773D01*
X143283101Y-109831924D01*
X143083048Y-109832028D01*
X142863241Y-109832092D01*
X142622739Y-109832124D01*
X142360602Y-109832133D01*
X140169031Y-109832133D01*
X140130649Y-109793751D01*
X140106911Y-109766645D01*
X140095111Y-109739747D01*
X140092267Y-109703440D01*
X140092267Y-109651511D01*
X140180206Y-109651511D01*
X140230102Y-109649573D01*
X140340523Y-109630801D01*
X140441987Y-109593783D01*
X140533152Y-109540631D01*
X140612673Y-109473454D01*
X140634249Y-109447805D01*
X141604978Y-109447805D01*
X142781845Y-109450880D01*
X143958711Y-109453955D01*
X144017622Y-109480593D01*
X144042183Y-109492515D01*
X144072434Y-109509754D01*
X144089560Y-109522926D01*
X144097591Y-109530924D01*
X144112493Y-109538622D01*
X144113765Y-109534740D01*
X144115791Y-109511480D01*
X144117626Y-109469126D01*
X144119227Y-109409868D01*
X144120549Y-109335893D01*
X144121548Y-109249390D01*
X144122180Y-109152548D01*
X144122400Y-109047555D01*
X144122349Y-108978644D01*
X144122091Y-108880393D01*
X144121637Y-108790970D01*
X144121010Y-108712667D01*
X144120235Y-108647777D01*
X144119335Y-108598589D01*
X144118334Y-108567396D01*
X144117257Y-108556489D01*
X144114037Y-108557678D01*
X144096452Y-108567824D01*
X144070158Y-108584960D01*
X144057691Y-108593460D01*
X144043622Y-108602671D01*
X144029351Y-108610767D01*
X144013479Y-108617815D01*
X143994609Y-108623883D01*
X143971341Y-108629039D01*
X143942278Y-108633349D01*
X143906021Y-108636881D01*
X143861170Y-108639703D01*
X143806328Y-108641882D01*
X143740097Y-108643486D01*
X143661077Y-108644581D01*
X143567871Y-108645235D01*
X143459079Y-108645516D01*
X143333303Y-108645491D01*
X143189145Y-108645228D01*
X143025207Y-108644794D01*
X142840089Y-108644255D01*
X142661232Y-108643721D01*
X142502374Y-108643195D01*
X142363316Y-108642650D01*
X142242665Y-108642055D01*
X142139028Y-108641381D01*
X142051011Y-108640597D01*
X141977223Y-108639674D01*
X141916269Y-108638581D01*
X141866757Y-108637288D01*
X141827293Y-108635765D01*
X141796484Y-108633981D01*
X141772938Y-108631908D01*
X141755260Y-108629514D01*
X141742059Y-108626770D01*
X141731940Y-108623644D01*
X141723511Y-108620108D01*
X141715375Y-108616209D01*
X141678544Y-108596562D01*
X141648391Y-108577775D01*
X141646908Y-108576728D01*
X141624659Y-108562398D01*
X141611702Y-108556489D01*
X141611249Y-108557496D01*
X141609803Y-108574695D01*
X141608480Y-108611344D01*
X141607316Y-108665038D01*
X141606347Y-108733370D01*
X141605611Y-108813936D01*
X141605142Y-108904330D01*
X141604978Y-109002147D01*
X141604978Y-109447805D01*
X140634249Y-109447805D01*
X140679205Y-109394362D01*
X140731406Y-109305466D01*
X140767930Y-109208875D01*
X140787434Y-109106700D01*
X140788573Y-109001050D01*
X140770005Y-108894036D01*
X140730384Y-108787768D01*
X140672516Y-108690781D01*
X140597684Y-108605707D01*
X140509615Y-108536985D01*
X140410616Y-108486082D01*
X140302993Y-108454465D01*
X140189054Y-108443600D01*
X140092267Y-108443600D01*
X140092267Y-107215884D01*
X140701867Y-107215884D01*
X140702117Y-108347644D01*
X140732722Y-108308133D01*
X140740089Y-108298752D01*
X140794438Y-108235817D01*
X140862259Y-108167003D01*
X140945516Y-108090404D01*
X141046178Y-108004112D01*
X141066847Y-107986948D01*
X141116409Y-107946167D01*
X141177326Y-107896412D01*
X141247898Y-107839045D01*
X141326424Y-107775431D01*
X141411204Y-107706931D01*
X141500537Y-107634910D01*
X141592722Y-107560730D01*
X141611702Y-107545483D01*
X141686060Y-107485754D01*
X141778848Y-107411347D01*
X141869388Y-107338869D01*
X141955978Y-107269686D01*
X142036918Y-107205159D01*
X142110506Y-107146653D01*
X142175044Y-107095530D01*
X142228829Y-107053153D01*
X142270162Y-107020885D01*
X142297342Y-107000090D01*
X142308668Y-106992131D01*
X142312771Y-106993889D01*
X142333334Y-107006770D01*
X142369561Y-107031115D01*
X142419824Y-107065753D01*
X142482492Y-107109514D01*
X142555936Y-107161225D01*
X142638527Y-107219716D01*
X142728636Y-107283816D01*
X142824631Y-107352354D01*
X142924885Y-107424157D01*
X143027768Y-107498056D01*
X143131650Y-107572879D01*
X143234901Y-107647455D01*
X143335892Y-107720613D01*
X143432994Y-107791181D01*
X143524577Y-107857989D01*
X143609011Y-107919865D01*
X143684667Y-107975639D01*
X143749916Y-108024138D01*
X143803128Y-108064193D01*
X143842673Y-108094631D01*
X143868026Y-108115056D01*
X143922295Y-108161101D01*
X143978775Y-108211388D01*
X144028669Y-108258185D01*
X144122400Y-108349349D01*
X144122400Y-107194910D01*
X144046200Y-107195544D01*
X144004160Y-107194426D01*
X143968334Y-107188696D01*
X143930772Y-107176110D01*
X143882577Y-107154432D01*
X143875897Y-107151211D01*
X143826359Y-107125812D01*
X143778369Y-107099004D01*
X143741466Y-107076083D01*
X143734834Y-107071515D01*
X143703593Y-107049484D01*
X143658654Y-107017307D01*
X143602147Y-106976543D01*
X143536204Y-106928755D01*
X143462957Y-106875502D01*
X143384536Y-106818345D01*
X143303072Y-106758845D01*
X143220698Y-106698563D01*
X143139544Y-106639060D01*
X143061742Y-106581895D01*
X142989423Y-106528630D01*
X142924718Y-106480826D01*
X142869759Y-106440043D01*
X142826676Y-106407842D01*
X142797602Y-106385784D01*
X142784667Y-106375429D01*
X142780351Y-106370956D01*
X142778312Y-106366764D01*
X142780926Y-106363357D01*
X142789986Y-106360675D01*
X142807285Y-106358659D01*
X142834614Y-106357252D01*
X142873765Y-106356395D01*
X142926533Y-106356030D01*
X142994707Y-106356097D01*
X143080082Y-106356540D01*
X143184449Y-106357298D01*
X143309600Y-106358315D01*
X143354300Y-106358692D01*
X143475395Y-106359831D01*
X143576688Y-106361028D01*
X143660262Y-106362364D01*
X143728204Y-106363923D01*
X143782599Y-106365785D01*
X143825532Y-106368034D01*
X143859089Y-106370752D01*
X143885355Y-106374021D01*
X143906416Y-106377922D01*
X143924357Y-106382539D01*
X143950770Y-106390808D01*
X144012772Y-106414417D01*
X144065573Y-106440315D01*
X144102645Y-106465465D01*
X144104075Y-106466661D01*
X144108424Y-106468832D01*
X144112026Y-106466672D01*
X144114951Y-106458356D01*
X144117269Y-106442060D01*
X144119051Y-106415959D01*
X144120367Y-106378229D01*
X144121286Y-106327044D01*
X144121878Y-106260580D01*
X144122215Y-106177013D01*
X144122365Y-106074517D01*
X144122400Y-105951268D01*
X144122400Y-105419704D01*
X144064783Y-105458477D01*
X144055893Y-105464568D01*
X144041069Y-105475024D01*
X144027422Y-105484421D01*
X144013765Y-105492817D01*
X143998911Y-105500267D01*
X143981670Y-105506827D01*
X143960855Y-105512554D01*
X143935280Y-105517505D01*
X143903755Y-105521734D01*
X143865093Y-105525299D01*
X143818107Y-105528256D01*
X143761608Y-105530660D01*
X143694409Y-105532569D01*
X143615322Y-105534038D01*
X143523160Y-105535124D01*
X143416734Y-105535882D01*
X143294857Y-105536370D01*
X143156341Y-105536642D01*
X142999999Y-105536757D01*
X142824642Y-105536769D01*
X142629082Y-105536735D01*
X142412133Y-105536711D01*
X142289513Y-105536720D01*
X142084447Y-105536757D01*
X141900116Y-105536773D01*
X141735334Y-105536712D01*
X141588916Y-105536516D01*
X141459674Y-105536130D01*
X141346422Y-105535495D01*
X141247975Y-105534556D01*
X141163144Y-105533255D01*
X141090744Y-105531536D01*
X141029589Y-105529341D01*
X140978492Y-105526615D01*
X140936267Y-105523299D01*
X140901727Y-105519338D01*
X140873686Y-105514675D01*
X140850958Y-105509253D01*
X140832356Y-105503014D01*
X140816693Y-105495903D01*
X140802784Y-105487862D01*
X140789441Y-105478834D01*
X140775479Y-105468764D01*
X140759711Y-105457593D01*
X140701867Y-105417803D01*
X140701867Y-106477686D01*
X140764966Y-106439689D01*
X140790005Y-106425007D01*
X140817586Y-106410469D01*
X140845700Y-106398373D01*
X140876551Y-106388468D01*
X140912344Y-106380506D01*
X140955283Y-106374239D01*
X141007574Y-106369418D01*
X141071419Y-106365794D01*
X141149025Y-106363119D01*
X141242594Y-106361143D01*
X141354333Y-106359618D01*
X141486445Y-106358296D01*
X141606434Y-106357387D01*
X141723063Y-106356980D01*
X141818531Y-106357233D01*
X141892556Y-106358143D01*
X141944855Y-106359707D01*
X141975149Y-106361921D01*
X141983156Y-106364780D01*
X141979858Y-106367839D01*
X141958408Y-106385994D01*
X141921889Y-106415725D01*
X141872442Y-106455361D01*
X141812207Y-106503229D01*
X141743327Y-106557657D01*
X141667943Y-106616973D01*
X141588196Y-106679505D01*
X141506228Y-106743579D01*
X141424180Y-106807525D01*
X141344194Y-106869669D01*
X141268411Y-106928339D01*
X141198973Y-106981863D01*
X141138021Y-107028570D01*
X141087696Y-107066786D01*
X141050140Y-107094839D01*
X141027495Y-107111057D01*
X140955212Y-107156365D01*
X140875463Y-107196339D01*
X140807188Y-107217870D01*
X140749844Y-107221173D01*
X140701867Y-107215884D01*
X140092267Y-107215884D01*
X140092267Y-106823247D01*
X140092280Y-106612103D01*
X140092330Y-106407980D01*
X140092430Y-106224314D01*
X140092592Y-106060009D01*
X140092829Y-105913971D01*
X140093153Y-105785106D01*
X140093575Y-105672317D01*
X140094109Y-105574512D01*
X140094767Y-105490596D01*
X140095561Y-105419473D01*
X140096504Y-105360050D01*
X140097608Y-105311232D01*
X140098884Y-105271923D01*
X140100347Y-105241031D01*
X140102007Y-105217459D01*
X140103878Y-105200114D01*
X140105972Y-105187901D01*
X140108300Y-105179725D01*
X140110876Y-105174492D01*
X140114445Y-105168496D01*
X140117978Y-105161721D01*
X140121488Y-105155522D01*
X140125918Y-105149874D01*
X140132208Y-105144753D01*
X140141301Y-105140131D01*
X140154139Y-105135985D01*
X140171662Y-105132287D01*
X140194813Y-105129013D01*
X140224534Y-105126137D01*
X140261765Y-105123633D01*
X140307449Y-105121476D01*
X140362527Y-105119640D01*
X140427941Y-105118100D01*
X140504633Y-105116830D01*
X140593544Y-105115805D01*
X140695617Y-105114999D01*
X140701867Y-105114966D01*
X140811792Y-105114386D01*
X140943011Y-105113941D01*
G36*
X143377363Y-112662739D02*
G01*
X143452202Y-112666368D01*
X143514401Y-112673978D01*
X143570984Y-112686312D01*
X143697076Y-112730687D01*
X143811679Y-112793600D01*
X143912568Y-112873762D01*
X143998924Y-112970260D01*
X144069932Y-113082178D01*
X144124776Y-113208603D01*
X144162638Y-113348622D01*
X144168351Y-113384851D01*
X144174313Y-113463845D01*
X144174646Y-113552159D01*
X144169659Y-113641925D01*
X144159666Y-113725278D01*
X144144978Y-113794349D01*
X144114749Y-113880813D01*
X144060057Y-113990714D01*
X143992543Y-114088044D01*
X143941556Y-114150133D01*
X144037622Y-114153395D01*
X144133689Y-114156657D01*
X144133689Y-114579550D01*
X144133686Y-114590457D01*
X144133380Y-114684944D01*
X144132616Y-114771669D01*
X144131451Y-114848163D01*
X144129942Y-114911957D01*
X144128147Y-114960582D01*
X144126121Y-114991567D01*
X144123922Y-115002444D01*
X144123463Y-115002422D01*
X144107910Y-114995386D01*
X144085071Y-114979566D01*
X144079638Y-114975266D01*
X144065606Y-114964223D01*
X144052186Y-114954689D01*
X144037722Y-114946539D01*
X144020556Y-114939648D01*
X143999034Y-114933889D01*
X143971498Y-114929138D01*
X143936292Y-114925269D01*
X143891760Y-114922156D01*
X143836246Y-114919675D01*
X143768093Y-114917700D01*
X143685645Y-114916106D01*
X143587246Y-114914766D01*
X143471239Y-114913556D01*
X143335968Y-114912351D01*
X143179778Y-114911025D01*
X143037012Y-114909772D01*
X142891942Y-114908349D01*
X142766027Y-114906824D01*
X142657436Y-114905067D01*
X142564334Y-114902949D01*
X142484891Y-114900340D01*
X142417273Y-114897110D01*
X142359649Y-114893131D01*
X142310185Y-114888272D01*
X142267050Y-114882403D01*
X142228410Y-114875396D01*
X142192434Y-114867120D01*
X142157289Y-114857446D01*
X142121142Y-114846244D01*
X142082161Y-114833384D01*
X142039091Y-114817910D01*
X141946871Y-114775006D01*
X141867099Y-114721265D01*
X141792965Y-114652424D01*
X141729405Y-114574815D01*
X141667725Y-114470239D01*
X141620202Y-114350756D01*
X141586567Y-114215492D01*
X141566552Y-114063574D01*
X141559889Y-113894128D01*
X141560287Y-113836110D01*
X141562335Y-113770602D01*
X141566704Y-113709307D01*
X141574035Y-113647903D01*
X141584969Y-113582068D01*
X141600147Y-113507480D01*
X141620209Y-113419816D01*
X141645797Y-113314755D01*
X141652820Y-113286194D01*
X141670776Y-113210946D01*
X141686820Y-113140612D01*
X141700028Y-113079433D01*
X141709474Y-113031646D01*
X141714231Y-113001489D01*
X141717910Y-112973217D01*
X141723187Y-112946940D01*
X141727942Y-112936941D01*
X141736781Y-112940048D01*
X141764072Y-112950806D01*
X141806906Y-112968136D01*
X141862425Y-112990874D01*
X141927772Y-113017853D01*
X142000089Y-113047910D01*
X142015879Y-113054507D01*
X142106484Y-113093093D01*
X142176217Y-113124232D01*
X142225405Y-113148083D01*
X142254374Y-113164802D01*
X142263452Y-113174546D01*
X142261405Y-113182234D01*
X142251760Y-113208585D01*
X142236190Y-113247018D01*
X142216815Y-113292178D01*
X142178814Y-113386707D01*
X142137780Y-113523520D01*
X142112612Y-113664711D01*
X142108611Y-113702686D01*
X142106447Y-113805941D01*
X142119622Y-113893048D01*
X142148756Y-113964871D01*
X142194466Y-114022269D01*
X142257372Y-114066104D01*
X142338092Y-114097238D01*
X142437245Y-114116530D01*
X142496224Y-114123950D01*
X142489445Y-113962064D01*
X142489110Y-113936106D01*
X143011842Y-113936106D01*
X143011857Y-113944993D01*
X143012655Y-114000340D01*
X143014488Y-114047264D01*
X143017111Y-114081047D01*
X143020274Y-114096972D01*
X143026741Y-114101057D01*
X143048875Y-114105428D01*
X143087988Y-114108396D01*
X143145939Y-114110086D01*
X143224586Y-114110622D01*
X143420462Y-114110622D01*
X143476973Y-114065952D01*
X143492212Y-114053215D01*
X143534844Y-114006396D01*
X143570672Y-113945745D01*
X143575850Y-113935103D01*
X143592745Y-113896324D01*
X143602909Y-113861308D01*
X143608325Y-113821278D01*
X143610978Y-113767459D01*
X143611383Y-113749352D01*
X143608540Y-113673989D01*
X143596620Y-113613257D01*
X143574037Y-113561548D01*
X143539211Y-113513254D01*
X143534798Y-113508197D01*
X143479160Y-113459728D01*
X143415333Y-113431541D01*
X143340282Y-113422248D01*
X143268693Y-113429480D01*
X143205645Y-113454204D01*
X143147758Y-113498751D01*
X143100808Y-113553681D01*
X143060961Y-113626106D01*
X143033263Y-113712660D01*
X143017096Y-113815330D01*
X143011842Y-113936106D01*
X142489110Y-113936106D01*
X142487813Y-113835505D01*
X142494194Y-113684049D01*
X142508777Y-113535604D01*
X142530882Y-113399422D01*
X142545821Y-113334755D01*
X142588741Y-113202510D01*
X142645340Y-113080238D01*
X142714017Y-112970315D01*
X142793170Y-112875117D01*
X142881196Y-112797020D01*
X142976493Y-112738401D01*
X143028864Y-112714405D01*
X143099590Y-112688768D01*
X143170812Y-112672522D01*
X143249712Y-112664178D01*
X143340282Y-112662310D01*
X143343467Y-112662245D01*
X143377363Y-112662739D01*
G37*
X143377363Y-112662739D02*
X143452202Y-112666368D01*
X143514401Y-112673978D01*
X143570984Y-112686312D01*
X143697076Y-112730687D01*
X143811679Y-112793600D01*
X143912568Y-112873762D01*
X143998924Y-112970260D01*
X144069932Y-113082178D01*
X144124776Y-113208603D01*
X144162638Y-113348622D01*
X144168351Y-113384851D01*
X144174313Y-113463845D01*
X144174646Y-113552159D01*
X144169659Y-113641925D01*
X144159666Y-113725278D01*
X144144978Y-113794349D01*
X144114749Y-113880813D01*
X144060057Y-113990714D01*
X143992543Y-114088044D01*
X143941556Y-114150133D01*
X144037622Y-114153395D01*
X144133689Y-114156657D01*
X144133689Y-114579550D01*
X144133686Y-114590457D01*
X144133380Y-114684944D01*
X144132616Y-114771669D01*
X144131451Y-114848163D01*
X144129942Y-114911957D01*
X144128147Y-114960582D01*
X144126121Y-114991567D01*
X144123922Y-115002444D01*
X144123463Y-115002422D01*
X144107910Y-114995386D01*
X144085071Y-114979566D01*
X144079638Y-114975266D01*
X144065606Y-114964223D01*
X144052186Y-114954689D01*
X144037722Y-114946539D01*
X144020556Y-114939648D01*
X143999034Y-114933889D01*
X143971498Y-114929138D01*
X143936292Y-114925269D01*
X143891760Y-114922156D01*
X143836246Y-114919675D01*
X143768093Y-114917700D01*
X143685645Y-114916106D01*
X143587246Y-114914766D01*
X143471239Y-114913556D01*
X143335968Y-114912351D01*
X143179778Y-114911025D01*
X143037012Y-114909772D01*
X142891942Y-114908349D01*
X142766027Y-114906824D01*
X142657436Y-114905067D01*
X142564334Y-114902949D01*
X142484891Y-114900340D01*
X142417273Y-114897110D01*
X142359649Y-114893131D01*
X142310185Y-114888272D01*
X142267050Y-114882403D01*
X142228410Y-114875396D01*
X142192434Y-114867120D01*
X142157289Y-114857446D01*
X142121142Y-114846244D01*
X142082161Y-114833384D01*
X142039091Y-114817910D01*
X141946871Y-114775006D01*
X141867099Y-114721265D01*
X141792965Y-114652424D01*
X141729405Y-114574815D01*
X141667725Y-114470239D01*
X141620202Y-114350756D01*
X141586567Y-114215492D01*
X141566552Y-114063574D01*
X141559889Y-113894128D01*
X141560287Y-113836110D01*
X141562335Y-113770602D01*
X141566704Y-113709307D01*
X141574035Y-113647903D01*
X141584969Y-113582068D01*
X141600147Y-113507480D01*
X141620209Y-113419816D01*
X141645797Y-113314755D01*
X141652820Y-113286194D01*
X141670776Y-113210946D01*
X141686820Y-113140612D01*
X141700028Y-113079433D01*
X141709474Y-113031646D01*
X141714231Y-113001489D01*
X141717910Y-112973217D01*
X141723187Y-112946940D01*
X141727942Y-112936941D01*
X141736781Y-112940048D01*
X141764072Y-112950806D01*
X141806906Y-112968136D01*
X141862425Y-112990874D01*
X141927772Y-113017853D01*
X142000089Y-113047910D01*
X142015879Y-113054507D01*
X142106484Y-113093093D01*
X142176217Y-113124232D01*
X142225405Y-113148083D01*
X142254374Y-113164802D01*
X142263452Y-113174546D01*
X142261405Y-113182234D01*
X142251760Y-113208585D01*
X142236190Y-113247018D01*
X142216815Y-113292178D01*
X142178814Y-113386707D01*
X142137780Y-113523520D01*
X142112612Y-113664711D01*
X142108611Y-113702686D01*
X142106447Y-113805941D01*
X142119622Y-113893048D01*
X142148756Y-113964871D01*
X142194466Y-114022269D01*
X142257372Y-114066104D01*
X142338092Y-114097238D01*
X142437245Y-114116530D01*
X142496224Y-114123950D01*
X142489445Y-113962064D01*
X142489110Y-113936106D01*
X143011842Y-113936106D01*
X143011857Y-113944993D01*
X143012655Y-114000340D01*
X143014488Y-114047264D01*
X143017111Y-114081047D01*
X143020274Y-114096972D01*
X143026741Y-114101057D01*
X143048875Y-114105428D01*
X143087988Y-114108396D01*
X143145939Y-114110086D01*
X143224586Y-114110622D01*
X143420462Y-114110622D01*
X143476973Y-114065952D01*
X143492212Y-114053215D01*
X143534844Y-114006396D01*
X143570672Y-113945745D01*
X143575850Y-113935103D01*
X143592745Y-113896324D01*
X143602909Y-113861308D01*
X143608325Y-113821278D01*
X143610978Y-113767459D01*
X143611383Y-113749352D01*
X143608540Y-113673989D01*
X143596620Y-113613257D01*
X143574037Y-113561548D01*
X143539211Y-113513254D01*
X143534798Y-113508197D01*
X143479160Y-113459728D01*
X143415333Y-113431541D01*
X143340282Y-113422248D01*
X143268693Y-113429480D01*
X143205645Y-113454204D01*
X143147758Y-113498751D01*
X143100808Y-113553681D01*
X143060961Y-113626106D01*
X143033263Y-113712660D01*
X143017096Y-113815330D01*
X143011842Y-113936106D01*
X142489110Y-113936106D01*
X142487813Y-113835505D01*
X142494194Y-113684049D01*
X142508777Y-113535604D01*
X142530882Y-113399422D01*
X142545821Y-113334755D01*
X142588741Y-113202510D01*
X142645340Y-113080238D01*
X142714017Y-112970315D01*
X142793170Y-112875117D01*
X142881196Y-112797020D01*
X142976493Y-112738401D01*
X143028864Y-112714405D01*
X143099590Y-112688768D01*
X143170812Y-112672522D01*
X143249712Y-112664178D01*
X143340282Y-112662310D01*
X143343467Y-112662245D01*
X143377363Y-112662739D01*
G36*
X145354259Y-108817702D02*
G01*
X145405592Y-108830643D01*
X145462118Y-108853806D01*
X145516035Y-108883698D01*
X145559539Y-108916827D01*
X145569887Y-108927023D01*
X145621662Y-108994108D01*
X145661554Y-109074234D01*
X145685956Y-109160444D01*
X145694068Y-109215408D01*
X145700673Y-109308861D01*
X145698586Y-109398642D01*
X145688340Y-109481131D01*
X145670470Y-109552714D01*
X145645508Y-109609772D01*
X145613988Y-109648689D01*
X145612012Y-109650064D01*
X145586786Y-109657152D01*
X145539535Y-109661391D01*
X145470071Y-109662800D01*
X145407838Y-109661940D01*
X145360456Y-109657220D01*
X145328353Y-109645530D01*
X145308800Y-109623761D01*
X145299070Y-109588802D01*
X145296433Y-109537544D01*
X145298161Y-109466877D01*
X145301173Y-109418257D01*
X145309366Y-109368061D01*
X145323419Y-109335567D01*
X145344654Y-109318108D01*
X145374394Y-109313017D01*
X145378936Y-109313123D01*
X145413730Y-109321825D01*
X145437147Y-109345835D01*
X145450347Y-109387100D01*
X145454489Y-109447569D01*
X145454489Y-109516044D01*
X145492841Y-109516044D01*
X145501976Y-109515994D01*
X145519227Y-109513773D01*
X145529521Y-109504506D01*
X145536459Y-109483125D01*
X145543641Y-109444564D01*
X145544575Y-109439090D01*
X145554478Y-109342140D01*
X145551559Y-109252148D01*
X145536829Y-109171240D01*
X145511299Y-109101541D01*
X145475978Y-109045176D01*
X145431879Y-109004271D01*
X145380012Y-108980949D01*
X145321388Y-108977337D01*
X145292494Y-108982855D01*
X145236604Y-109009539D01*
X145190945Y-109055727D01*
X145156108Y-109120709D01*
X145132690Y-109203771D01*
X145128241Y-109228445D01*
X145117742Y-109317774D01*
X145118971Y-109397581D01*
X145131906Y-109475674D01*
X145138696Y-109510817D01*
X145139713Y-109556255D01*
X145127182Y-109587570D01*
X145100395Y-109607723D01*
X145072148Y-109614107D01*
X145040924Y-109604621D01*
X145027499Y-109595292D01*
X145003967Y-109561057D01*
X144986095Y-109508435D01*
X144974599Y-109439919D01*
X144970192Y-109358000D01*
X144974179Y-109260850D01*
X144990494Y-109154843D01*
X145018545Y-109061031D01*
X145057452Y-108982235D01*
X145106334Y-108921281D01*
X145139195Y-108895211D01*
X145188394Y-108865703D01*
X145242252Y-108840432D01*
X145293419Y-108822782D01*
X145334544Y-108816142D01*
X145354259Y-108817702D01*
G37*
X145354259Y-108817702D02*
X145405592Y-108830643D01*
X145462118Y-108853806D01*
X145516035Y-108883698D01*
X145559539Y-108916827D01*
X145569887Y-108927023D01*
X145621662Y-108994108D01*
X145661554Y-109074234D01*
X145685956Y-109160444D01*
X145694068Y-109215408D01*
X145700673Y-109308861D01*
X145698586Y-109398642D01*
X145688340Y-109481131D01*
X145670470Y-109552714D01*
X145645508Y-109609772D01*
X145613988Y-109648689D01*
X145612012Y-109650064D01*
X145586786Y-109657152D01*
X145539535Y-109661391D01*
X145470071Y-109662800D01*
X145407838Y-109661940D01*
X145360456Y-109657220D01*
X145328353Y-109645530D01*
X145308800Y-109623761D01*
X145299070Y-109588802D01*
X145296433Y-109537544D01*
X145298161Y-109466877D01*
X145301173Y-109418257D01*
X145309366Y-109368061D01*
X145323419Y-109335567D01*
X145344654Y-109318108D01*
X145374394Y-109313017D01*
X145378936Y-109313123D01*
X145413730Y-109321825D01*
X145437147Y-109345835D01*
X145450347Y-109387100D01*
X145454489Y-109447569D01*
X145454489Y-109516044D01*
X145492841Y-109516044D01*
X145501976Y-109515994D01*
X145519227Y-109513773D01*
X145529521Y-109504506D01*
X145536459Y-109483125D01*
X145543641Y-109444564D01*
X145544575Y-109439090D01*
X145554478Y-109342140D01*
X145551559Y-109252148D01*
X145536829Y-109171240D01*
X145511299Y-109101541D01*
X145475978Y-109045176D01*
X145431879Y-109004271D01*
X145380012Y-108980949D01*
X145321388Y-108977337D01*
X145292494Y-108982855D01*
X145236604Y-109009539D01*
X145190945Y-109055727D01*
X145156108Y-109120709D01*
X145132690Y-109203771D01*
X145128241Y-109228445D01*
X145117742Y-109317774D01*
X145118971Y-109397581D01*
X145131906Y-109475674D01*
X145138696Y-109510817D01*
X145139713Y-109556255D01*
X145127182Y-109587570D01*
X145100395Y-109607723D01*
X145072148Y-109614107D01*
X145040924Y-109604621D01*
X145027499Y-109595292D01*
X145003967Y-109561057D01*
X144986095Y-109508435D01*
X144974599Y-109439919D01*
X144970192Y-109358000D01*
X144974179Y-109260850D01*
X144990494Y-109154843D01*
X145018545Y-109061031D01*
X145057452Y-108982235D01*
X145106334Y-108921281D01*
X145139195Y-108895211D01*
X145188394Y-108865703D01*
X145242252Y-108840432D01*
X145293419Y-108822782D01*
X145334544Y-108816142D01*
X145354259Y-108817702D01*
G36*
X145235041Y-105113130D02*
G01*
X145335956Y-105113378D01*
X145411617Y-105113417D01*
X145489526Y-105113672D01*
X145549536Y-105114316D01*
X145594264Y-105115520D01*
X145626326Y-105117457D01*
X145648340Y-105120297D01*
X145662924Y-105124212D01*
X145672694Y-105129374D01*
X145680267Y-105135955D01*
X145686501Y-105142923D01*
X145693801Y-105155921D01*
X145698554Y-105175069D01*
X145701292Y-105204472D01*
X145702545Y-105248238D01*
X145702845Y-105310472D01*
X145702469Y-105359418D01*
X145698041Y-105466278D01*
X145687953Y-105555506D01*
X145671365Y-105630304D01*
X145647435Y-105693875D01*
X145615321Y-105749421D01*
X145574182Y-105800146D01*
X145568330Y-105806134D01*
X145519821Y-105843001D01*
X145459013Y-105874101D01*
X145394769Y-105895583D01*
X145335956Y-105903600D01*
X145314739Y-105902321D01*
X145257323Y-105890009D01*
X145197413Y-105867480D01*
X145143363Y-105838250D01*
X145103532Y-105805833D01*
X145086510Y-105786292D01*
X145047322Y-105731580D01*
X145017193Y-105671277D01*
X144995232Y-105602081D01*
X144980550Y-105520689D01*
X144972259Y-105423800D01*
X144970148Y-105336333D01*
X145115808Y-105336333D01*
X145115817Y-105339361D01*
X145117782Y-105390481D01*
X145122507Y-105450584D01*
X145129035Y-105507292D01*
X145138331Y-105557250D01*
X145164600Y-105632002D01*
X145203899Y-105689511D01*
X145256933Y-105731012D01*
X145308200Y-105752229D01*
X145356026Y-105753647D01*
X145406961Y-105735365D01*
X145452878Y-105705695D01*
X145495287Y-105658998D01*
X145525090Y-105597608D01*
X145544226Y-105518462D01*
X145544464Y-105516972D01*
X145550256Y-105468001D01*
X145554396Y-105409307D01*
X145556004Y-105353266D01*
X145556089Y-105260133D01*
X145115822Y-105260133D01*
X145115808Y-105336333D01*
X144970148Y-105336333D01*
X144969467Y-105308111D01*
X144969066Y-105268629D01*
X144968653Y-105222918D01*
X144970457Y-105187117D01*
X144976739Y-105160026D01*
X144989759Y-105140444D01*
X145011778Y-105127170D01*
X145045055Y-105119002D01*
X145091851Y-105114740D01*
X145115822Y-105114143D01*
X145154427Y-105113183D01*
X145235041Y-105113130D01*
G37*
X145235041Y-105113130D02*
X145335956Y-105113378D01*
X145411617Y-105113417D01*
X145489526Y-105113672D01*
X145549536Y-105114316D01*
X145594264Y-105115520D01*
X145626326Y-105117457D01*
X145648340Y-105120297D01*
X145662924Y-105124212D01*
X145672694Y-105129374D01*
X145680267Y-105135955D01*
X145686501Y-105142923D01*
X145693801Y-105155921D01*
X145698554Y-105175069D01*
X145701292Y-105204472D01*
X145702545Y-105248238D01*
X145702845Y-105310472D01*
X145702469Y-105359418D01*
X145698041Y-105466278D01*
X145687953Y-105555506D01*
X145671365Y-105630304D01*
X145647435Y-105693875D01*
X145615321Y-105749421D01*
X145574182Y-105800146D01*
X145568330Y-105806134D01*
X145519821Y-105843001D01*
X145459013Y-105874101D01*
X145394769Y-105895583D01*
X145335956Y-105903600D01*
X145314739Y-105902321D01*
X145257323Y-105890009D01*
X145197413Y-105867480D01*
X145143363Y-105838250D01*
X145103532Y-105805833D01*
X145086510Y-105786292D01*
X145047322Y-105731580D01*
X145017193Y-105671277D01*
X144995232Y-105602081D01*
X144980550Y-105520689D01*
X144972259Y-105423800D01*
X144970148Y-105336333D01*
X145115808Y-105336333D01*
X145115817Y-105339361D01*
X145117782Y-105390481D01*
X145122507Y-105450584D01*
X145129035Y-105507292D01*
X145138331Y-105557250D01*
X145164600Y-105632002D01*
X145203899Y-105689511D01*
X145256933Y-105731012D01*
X145308200Y-105752229D01*
X145356026Y-105753647D01*
X145406961Y-105735365D01*
X145452878Y-105705695D01*
X145495287Y-105658998D01*
X145525090Y-105597608D01*
X145544226Y-105518462D01*
X145544464Y-105516972D01*
X145550256Y-105468001D01*
X145554396Y-105409307D01*
X145556004Y-105353266D01*
X145556089Y-105260133D01*
X145115822Y-105260133D01*
X145115808Y-105336333D01*
X144970148Y-105336333D01*
X144969467Y-105308111D01*
X144969066Y-105268629D01*
X144968653Y-105222918D01*
X144970457Y-105187117D01*
X144976739Y-105160026D01*
X144989759Y-105140444D01*
X145011778Y-105127170D01*
X145045055Y-105119002D01*
X145091851Y-105114740D01*
X145115822Y-105114143D01*
X145154427Y-105113183D01*
X145235041Y-105113130D01*
G36*
X145394486Y-110001489D02*
G01*
X145473573Y-110001708D01*
X145534516Y-110002317D01*
X145580062Y-110003508D01*
X145612963Y-110005471D01*
X145635968Y-110008397D01*
X145651826Y-110012477D01*
X145663286Y-110017903D01*
X145673100Y-110024864D01*
X145697493Y-110055292D01*
X145700372Y-110090235D01*
X145681282Y-110127216D01*
X145677807Y-110131400D01*
X145669279Y-110139576D01*
X145657728Y-110145636D01*
X145639896Y-110150019D01*
X145612524Y-110153161D01*
X145572354Y-110155498D01*
X145516128Y-110157469D01*
X145440589Y-110159511D01*
X145221458Y-110165155D01*
X145462099Y-110430444D01*
X145528875Y-110504278D01*
X145586991Y-110569458D01*
X145631949Y-110621652D01*
X145664871Y-110662727D01*
X145686879Y-110694545D01*
X145699094Y-110718974D01*
X145702639Y-110737876D01*
X145698636Y-110753117D01*
X145688207Y-110766561D01*
X145672474Y-110780073D01*
X145663991Y-110786318D01*
X145653413Y-110791950D01*
X145639255Y-110796161D01*
X145618803Y-110799113D01*
X145589342Y-110800968D01*
X145548161Y-110801887D01*
X145492544Y-110802032D01*
X145419779Y-110801565D01*
X145327151Y-110800648D01*
X145012199Y-110797333D01*
X144990633Y-110770682D01*
X144974441Y-110744617D01*
X144971670Y-110711759D01*
X144990623Y-110677228D01*
X144994208Y-110672916D01*
X145002737Y-110664784D01*
X145014329Y-110658755D01*
X145032235Y-110654394D01*
X145059706Y-110651266D01*
X145099994Y-110648937D01*
X145156351Y-110646971D01*
X145232029Y-110644933D01*
X145451878Y-110639289D01*
X145288084Y-110458666D01*
X145209451Y-110371928D01*
X145141058Y-110296157D01*
X145085708Y-110234020D01*
X145042338Y-110183922D01*
X145009881Y-110144265D01*
X144987273Y-110113452D01*
X144973448Y-110089886D01*
X144967343Y-110071970D01*
X144967892Y-110058107D01*
X144974029Y-110046699D01*
X144984691Y-110036150D01*
X144998811Y-110024864D01*
X145004772Y-110020411D01*
X145015268Y-110014412D01*
X145029093Y-110009833D01*
X145048998Y-110006481D01*
X145077732Y-110004167D01*
X145118045Y-110002699D01*
X145172687Y-110001887D01*
X145244407Y-110001540D01*
X145335956Y-110001466D01*
X145394486Y-110001489D01*
G37*
X145394486Y-110001489D02*
X145473573Y-110001708D01*
X145534516Y-110002317D01*
X145580062Y-110003508D01*
X145612963Y-110005471D01*
X145635968Y-110008397D01*
X145651826Y-110012477D01*
X145663286Y-110017903D01*
X145673100Y-110024864D01*
X145697493Y-110055292D01*
X145700372Y-110090235D01*
X145681282Y-110127216D01*
X145677807Y-110131400D01*
X145669279Y-110139576D01*
X145657728Y-110145636D01*
X145639896Y-110150019D01*
X145612524Y-110153161D01*
X145572354Y-110155498D01*
X145516128Y-110157469D01*
X145440589Y-110159511D01*
X145221458Y-110165155D01*
X145462099Y-110430444D01*
X145528875Y-110504278D01*
X145586991Y-110569458D01*
X145631949Y-110621652D01*
X145664871Y-110662727D01*
X145686879Y-110694545D01*
X145699094Y-110718974D01*
X145702639Y-110737876D01*
X145698636Y-110753117D01*
X145688207Y-110766561D01*
X145672474Y-110780073D01*
X145663991Y-110786318D01*
X145653413Y-110791950D01*
X145639255Y-110796161D01*
X145618803Y-110799113D01*
X145589342Y-110800968D01*
X145548161Y-110801887D01*
X145492544Y-110802032D01*
X145419779Y-110801565D01*
X145327151Y-110800648D01*
X145012199Y-110797333D01*
X144990633Y-110770682D01*
X144974441Y-110744617D01*
X144971670Y-110711759D01*
X144990623Y-110677228D01*
X144994208Y-110672916D01*
X145002737Y-110664784D01*
X145014329Y-110658755D01*
X145032235Y-110654394D01*
X145059706Y-110651266D01*
X145099994Y-110648937D01*
X145156351Y-110646971D01*
X145232029Y-110644933D01*
X145451878Y-110639289D01*
X145288084Y-110458666D01*
X145209451Y-110371928D01*
X145141058Y-110296157D01*
X145085708Y-110234020D01*
X145042338Y-110183922D01*
X145009881Y-110144265D01*
X144987273Y-110113452D01*
X144973448Y-110089886D01*
X144967343Y-110071970D01*
X144967892Y-110058107D01*
X144974029Y-110046699D01*
X144984691Y-110036150D01*
X144998811Y-110024864D01*
X145004772Y-110020411D01*
X145015268Y-110014412D01*
X145029093Y-110009833D01*
X145048998Y-110006481D01*
X145077732Y-110004167D01*
X145118045Y-110002699D01*
X145172687Y-110001887D01*
X145244407Y-110001540D01*
X145335956Y-110001466D01*
X145394486Y-110001489D01*
%TD*%
M02*
