M48
; DRILL file {KiCad (6.0.7-1)-1} date 2022 August 03, Wednesday 11:09:05
; FORMAT={-:-/ absolute / inch / decimal}
; #@! TF.CreationDate,2022-08-03T11:09:05+05:30
; #@! TF.GenerationSoftware,Kicad,Pcbnew,(6.0.7-1)-1
; #@! TF.FileFunction,Plated,1,2,PTH
FMAT,2
INCH
; #@! TA.AperFunction,Plated,PTH,ViaDrill
T1C0.0177
; #@! TA.AperFunction,Plated,PTH,ComponentDrill
T2C0.0315
; #@! TA.AperFunction,Plated,PTH,ComponentDrill
T3C0.0354
; #@! TA.AperFunction,Plated,PTH,ComponentDrill
T4C0.0394
; #@! TA.AperFunction,Plated,PTH,ComponentDrill
T5C0.0433
; #@! TA.AperFunction,Plated,PTH,ComponentDrill
T6C0.0598
%
G90
G05
T1
X5.1929Y-3.3606
X5.2626Y-3.5193
X5.4583Y-4.5161
X5.4638Y-3.3433
X5.5984Y-4.2933
X5.6854Y-4.2492
X5.8173Y-3.5307
T2
X5.2571Y-2.9654
X5.3201Y-4.4287
X5.3555Y-2.9654
X5.4185Y-4.4287
X5.4679Y-2.9654
X5.5663Y-2.9654
X5.7303Y-3.4138
X5.7831Y-4.112
X5.7831Y-4.302
X6.0303Y-3.4138
X6.0831Y-4.112
X6.0831Y-4.302
T3
X5.7823Y-3.165
X5.8807Y-3.165
X5.9791Y-3.165
X5.995Y-3.7056
X5.995Y-3.8056
T4
X5.3569Y-4.6654
X5.3763Y-2.7654
X5.4569Y-4.6654
X5.4763Y-2.7654
X5.5569Y-4.6654
X5.5763Y-2.7654
X6.2783Y-2.7642
X6.2783Y-2.8642
X6.287Y-4.5555
X6.287Y-4.6555
T5
X5.2863Y-3.1882
X5.352Y-4.1295
X5.3863Y-3.1882
X5.452Y-4.1295
X5.4863Y-3.1882
X5.552Y-4.1295
T6
X5.8163Y-2.852
X5.8163Y-4.5854
X6.0163Y-2.852
X6.0163Y-4.5854
T4
G00X5.4933Y-3.7028
M15
G01X5.4933Y-3.7815
M16
G05
G00X5.572Y-3.9272
M15
G01X5.6508Y-3.9272
M16
G05
G00X5.7295Y-3.7028
M15
G01X5.7295Y-3.7815
M16
G05
T0
M30
